<?xml version="1.0" encoding="UTF-8"?>
<svg version="1.1" xmlns="http://www.w3.org/2000/svg" width="317" height="320">
<path d="M0 0 C0.61875 0.8353125 0.61875 0.8353125 1.25 1.6875 C1.8275 2.450625 2.405 3.21375 3 4 C3.89525391 5.21816406 3.89525391 5.21816406 4.80859375 6.4609375 C14.26342171 17.41572926 34.09832252 19.20866929 47.44140625 22.2421875 C73.67564469 28.29605268 73.67564469 28.29605268 81.0234375 38.37109375 C83.30955684 42.1843408 84 44.51192991 84 49 C84.804375 48.649375 85.60875 48.29875 86.4375 47.9375 C91.80286057 46.52556301 96.23412756 46.68291789 101.296875 49.09375 C112.1338146 55.8201263 118.44890434 66.3973416 125 77 C126.53406524 79.47536563 128.07101816 81.94879875 129.61425781 84.41845703 C130.63640784 86.05510259 131.65301277 87.69522909 132.66308594 89.33935547 C135.42884835 93.77449987 138.33717366 97.75349482 141.8918457 101.59204102 C143 103 143 103 143 105 C143.7734375 105.37125 143.7734375 105.37125 144.5625 105.75 C146.58320269 106.78625779 148.49297732 107.89493725 150.4375 109.0625 C153.26401892 110.70114998 155.71952335 111.60236647 159 112 C159 112.66 159 113.32 159 114 C158.401875 114.556875 157.80375 115.11375 157.1875 115.6875 C150.92830401 122.30436433 150.86739331 131.0383004 150.89086914 139.63330078 C151.13340219 147.11547236 152.01475055 154.57851401 152.79370117 162.02172852 C155.69674888 190.04718481 155.69674888 190.04718481 149 201 C145.34872697 205.17414951 141.06842989 207.77483566 136 210 C136.433125 210.59425781 136.86625 211.18851563 137.3125 211.80078125 C141.65958588 218.27109658 143.32307357 223.23264567 142 231 C141.03796408 234.25488821 139.68869827 237.06198263 138 240 C137.59910156 240.70511719 137.19820313 241.41023437 136.78515625 242.13671875 C132.42659005 249.1735923 126.63891293 254.99675202 121 261 C104.01409724 279.39904636 104.01409724 279.39904636 98 303 C96.88625 302.505 95.7725 302.01 94.625 301.5 C80.09565363 296.20046529 64.83117673 303.9518806 51.5 309.5 C21.80810867 321.85706056 21.80810867 321.85706056 10.53125 318.19921875 C6.6156524 316.55288794 3.34798949 314.61983931 0 312 C-0.81404297 312.74056641 -0.81404297 312.74056641 -1.64453125 313.49609375 C-2.35996094 314.13675781 -3.07539063 314.77742188 -3.8125 315.4375 C-4.52019531 316.07558594 -5.22789062 316.71367187 -5.95703125 317.37109375 C-11.22956377 321.57500592 -18.63812304 320.44552794 -25 320 C-34.10635718 318.28749573 -42.58948999 314.12217341 -51.03344727 310.43774414 C-56.64249208 307.99090656 -62.27097941 305.65183983 -68 303.5 C-68.63977783 303.25717285 -69.27955566 303.0143457 -69.9387207 302.76416016 C-78.7804464 299.49156563 -89.13073949 298.05810644 -98 302 C-97.91878906 301.29617188 -97.83757812 300.59234375 -97.75390625 299.8671875 C-96.95026999 287.30422072 -102.76948773 278.14069354 -110.6875 269 C-112.24499623 267.24261647 -113.81613595 265.49915072 -115.39746094 263.76318359 C-140.51923205 236.12311184 -140.51923205 236.12311184 -140 222 C-139.08641449 218.14812595 -137.76942845 214.5388569 -136 211 C-136.73992187 210.89945313 -137.47984375 210.79890625 -138.2421875 210.6953125 C-143.2962963 209.42104711 -147.41380261 205.55523948 -150.14453125 201.15625 C-152.93894859 194.87913518 -153.19273053 188.74084557 -153.1875 182 C-153.18814453 181.12424316 -153.18878906 180.24848633 -153.18945312 179.34619141 C-153.13956391 172.97284449 -152.6773856 166.70961373 -152 160.375 C-150.29814265 144.22383443 -149.00753606 129.26390831 -158 115 C-157.3709375 114.86464844 -156.741875 114.72929688 -156.09375 114.58984375 C-143.22340999 111.35287571 -136.85710105 101.79325844 -130.09375 90.94140625 C-127.60574856 86.75247814 -125.16051403 82.54030188 -122.73242188 78.31640625 C-116.21664809 67.20732091 -108.8263726 55.62511732 -96.5 50.5625 C-92.31158743 49.88936227 -89.1651685 50.26926868 -85 51 C-84.90203125 50.34773438 -84.8040625 49.69546875 -84.703125 49.0234375 C-83.40163345 41.41644377 -81.15515489 36.07294559 -74.83789062 31.20483398 C-64.97479965 24.73905902 -53.36249297 22.63821085 -42.0625 20 C-19.37899959 15.83220152 -19.37899959 15.83220152 -1.625 2.75 C-1.08875 1.8425 -0.5525 0.935 0 0 Z " fill="#F9F8F7" transform="translate(158,0)"/>
<path d="M0 0 C0.61875 0.8353125 0.61875 0.8353125 1.25 1.6875 C1.8275 2.450625 2.405 3.21375 3 4 C3.89525391 5.21816406 3.89525391 5.21816406 4.80859375 6.4609375 C14.26342171 17.41572926 34.09832252 19.20866929 47.44140625 22.2421875 C73.67564469 28.29605268 73.67564469 28.29605268 81.0234375 38.37109375 C83.30955684 42.1843408 84 44.51192991 84 49 C84.804375 48.649375 85.60875 48.29875 86.4375 47.9375 C91.80286057 46.52556301 96.23412756 46.68291789 101.296875 49.09375 C112.1338146 55.8201263 118.44890434 66.3973416 125 77 C126.53406524 79.47536563 128.07101816 81.94879875 129.61425781 84.41845703 C130.63640784 86.05510259 131.65301277 87.69522909 132.66308594 89.33935547 C135.42884835 93.77449987 138.33717366 97.75349482 141.8918457 101.59204102 C143 103 143 103 143 105 C143.7734375 105.37125 143.7734375 105.37125 144.5625 105.75 C146.58320269 106.78625779 148.49297732 107.89493725 150.4375 109.0625 C153.26401892 110.70114998 155.71952335 111.60236647 159 112 C159 112.66 159 113.32 159 114 C158.401875 114.556875 157.80375 115.11375 157.1875 115.6875 C150.92830401 122.30436433 150.86739331 131.0383004 150.89086914 139.63330078 C151.13340219 147.11547236 152.01475055 154.57851401 152.79370117 162.02172852 C155.69674888 190.04718481 155.69674888 190.04718481 149 201 C145.34872697 205.17414951 141.06842989 207.77483566 136 210 C136.433125 210.59425781 136.86625 211.18851563 137.3125 211.80078125 C141.65958588 218.27109658 143.32307357 223.23264567 142 231 C141.03796408 234.25488821 139.68869827 237.06198263 138 240 C137.59910156 240.70511719 137.19820313 241.41023437 136.78515625 242.13671875 C132.42659005 249.1735923 126.63891293 254.99675202 121 261 C104.01409724 279.39904636 104.01409724 279.39904636 98 303 C96.88625 302.505 95.7725 302.01 94.625 301.5 C80.09565363 296.20046529 64.83117673 303.9518806 51.5 309.5 C21.80810867 321.85706056 21.80810867 321.85706056 10.53125 318.19921875 C6.6156524 316.55288794 3.34798949 314.61983931 0 312 C-0.81404297 312.74056641 -0.81404297 312.74056641 -1.64453125 313.49609375 C-2.35996094 314.13675781 -3.07539063 314.77742188 -3.8125 315.4375 C-4.52019531 316.07558594 -5.22789062 316.71367187 -5.95703125 317.37109375 C-11.22956377 321.57500592 -18.63812304 320.44552794 -25 320 C-34.10635718 318.28749573 -42.58948999 314.12217341 -51.03344727 310.43774414 C-56.64249208 307.99090656 -62.27097941 305.65183983 -68 303.5 C-68.63977783 303.25717285 -69.27955566 303.0143457 -69.9387207 302.76416016 C-78.7804464 299.49156563 -89.13073949 298.05810644 -98 302 C-97.91878906 301.29617188 -97.83757812 300.59234375 -97.75390625 299.8671875 C-96.95026999 287.30422072 -102.76948773 278.14069354 -110.6875 269 C-112.24499623 267.24261647 -113.81613595 265.49915072 -115.39746094 263.76318359 C-140.51923205 236.12311184 -140.51923205 236.12311184 -140 222 C-139.08641449 218.14812595 -137.76942845 214.5388569 -136 211 C-136.73992187 210.89945313 -137.47984375 210.79890625 -138.2421875 210.6953125 C-143.2962963 209.42104711 -147.41380261 205.55523948 -150.14453125 201.15625 C-152.93894859 194.87913518 -153.19273053 188.74084557 -153.1875 182 C-153.18814453 181.12424316 -153.18878906 180.24848633 -153.18945312 179.34619141 C-153.13956391 172.97284449 -152.6773856 166.70961373 -152 160.375 C-150.29814265 144.22383443 -149.00753606 129.26390831 -158 115 C-157.3709375 114.86464844 -156.741875 114.72929688 -156.09375 114.58984375 C-143.22340999 111.35287571 -136.85710105 101.79325844 -130.09375 90.94140625 C-127.60574856 86.75247814 -125.16051403 82.54030188 -122.73242188 78.31640625 C-116.21664809 67.20732091 -108.8263726 55.62511732 -96.5 50.5625 C-92.31158743 49.88936227 -89.1651685 50.26926868 -85 51 C-84.90203125 50.34773438 -84.8040625 49.69546875 -84.703125 49.0234375 C-83.40163345 41.41644377 -81.15515489 36.07294559 -74.83789062 31.20483398 C-64.97479965 24.73905902 -53.36249297 22.63821085 -42.0625 20 C-19.37899959 15.83220152 -19.37899959 15.83220152 -1.625 2.75 C-1.08875 1.8425 -0.5525 0.935 0 0 Z M-95.5625 80.6875 C-118.82399012 107.63820809 -130.06575694 141.56432329 -128 177 C-125.99835949 198.80734663 -118.75784057 221.11832082 -106 239 C-105.27167969 240.02480469 -104.54335937 241.04960937 -103.79296875 242.10546875 C-85.23308037 267.52112142 -60.16418182 283.61341164 -30 292 C-29.30535645 292.19352051 -28.61071289 292.38704102 -27.89501953 292.58642578 C-7.76393366 297.85442051 16.1681378 297.12545101 36 291 C37.15967285 290.64591064 37.15967285 290.64591064 38.34277344 290.28466797 C71.34318882 279.86878595 98.6654365 257.62028914 114.96875 227.03515625 C130.51899066 196.75425384 134.71477963 162.5780685 124.75 129.875 C114.01544918 96.79965128 91.75978834 68.91618102 60.82177734 52.57641602 C7.81465447 25.82810723 -55.09255584 37.26982091 -95.5625 80.6875 Z " fill="#009B4B" transform="translate(158,0)"/>
<path d="M0 0 C12.61904109 0.30710056 23.72945683 5.51098518 33 14 C37.05620757 18.52869497 41.27467967 23.54935934 44 29 C44 25.7 44 22.4 44 19 C53.89729262 26.06949473 57.34338338 36.74301518 59.41113281 48.29736328 C60.09737757 52.85074225 60.59141294 57.41406758 61 62 C61.29003906 60.73542969 61.29003906 60.73542969 61.5859375 59.4453125 C61.84632813 58.34960938 62.10671875 57.25390625 62.375 56.125 C62.63023437 55.03445312 62.88546875 53.94390625 63.1484375 52.8203125 C64 50 64 50 66 48 C69.52081538 60.47789728 67.48186458 75.09504721 63 87 C63.66 87 64.32 87 65 87 C66.74849671 82.6960081 68.3770361 78.35249409 70 74 C70.33 74 70.66 74 71 74 C71.98261133 85.92235077 68.40683443 95.50344752 63 106 C65.31 103.69 67.62 101.38 70 99 C71.07633418 102.22900254 70.99099771 102.80538331 69.99609375 105.87890625 C69.75318604 106.63067139 69.51027832 107.38243652 69.26000977 108.15698242 C68.98858154 108.95080322 68.71715332 109.74462402 68.4375 110.5625 C68.16156006 111.37372314 67.88562012 112.18494629 67.60131836 113.02075195 C62.50830632 127.48641132 54.50296738 136.68890135 41 144 C31.18062397 148.39354132 31.18062397 148.39354132 27 147 C25.8805387 144.1085914 25.89231803 141.32237388 25.9375 138.25 C25.94652344 137.45078125 25.95554688 136.6515625 25.96484375 135.828125 C25.97644531 135.22484375 25.98804688 134.6215625 26 134 C28.475 133.01 28.475 133.01 31 132 C31 131.34 31 130.68 31 130 C28.33470145 128.44524251 26.27200896 127.85678865 23.1875 127.25 C18.43398901 126.14618846 15.29593062 123.51565933 12 120 C10.3461627 116.6923254 10.24640729 113.54816565 11 110 C12.95617826 106.96434532 15.4489781 104.5413772 18 102 C29.25299572 90.09903908 37.75468438 75.62227385 38.25 58.8125 C38.19704223 57.20704349 38.10993195 55.6025636 38 54 C37.93167969 52.948125 37.86335938 51.89625 37.79296875 50.8125 C36.04414072 33.59327018 26.32248554 19.87029732 13.41796875 8.79296875 C9.22602802 5.68456682 4.67084767 3.30486689 0 1 C0 0.67 0 0.34 0 0 Z " fill="#E51F26" transform="translate(172,81)"/>
<path d="M0 0 C-2.32316761 2.55699292 -4.74895135 4.12091513 -7.75 5.8125 C-20.63175788 13.48198591 -30.9459539 25.88076167 -35.73828125 40.20703125 C-38.92826024 52.94524666 -37.98636019 66.94832694 -33 79 C-32.59910156 80.00417969 -32.19820312 81.00835937 -31.78515625 82.04296875 C-27.99871598 90.52678998 -22.33593815 96.40162654 -16 103 C-10.22922636 109.24805567 -10.22922636 109.24805567 -9.7265625 113.08984375 C-10.05785325 117.7715052 -11.6000619 120.86847806 -15 124 C-19.51088387 126.29799745 -24.12268811 127.68687757 -29 129 C-29.99 129.33 -30.98 129.66 -32 130 C-32 130.66 -32 131.32 -32 132 C-29.03 132.99 -29.03 132.99 -26 134 C-25.97294271 135.77074917 -25.95357805 137.54161711 -25.9375 139.3125 C-25.92589844 140.29863281 -25.91429687 141.28476563 -25.90234375 142.30078125 C-26 145 -26 145 -27 148 C-39.16334063 145.84198795 -47.29139784 140.69350926 -56 132 C-56.58910156 131.4225 -57.17820312 130.845 -57.78515625 130.25 C-64.55237109 123.05009879 -68.40245061 112.65050246 -70 103 C-69.67 102.01 -69.34 101.02 -69 100 C-67.02 101.65 -65.04 103.3 -63 105 C-63.32613281 104.32195312 -63.65226562 103.64390625 -63.98828125 102.9453125 C-68.57763921 93.1709277 -71.6260155 84.89730681 -71 74 C-67.64748524 75.67625738 -67.23264245 79.36023326 -66 82.75 C-65.21568639 85.15703483 -65.21568639 85.15703483 -63 86 C-63.31940552 85.04492554 -63.31940552 85.04492554 -63.64526367 84.07055664 C-65.99204335 76.41968444 -66.42523291 69.40546242 -66.3125 61.4375 C-66.31572266 60.26380859 -66.31894531 59.09011719 -66.32226562 57.88085938 C-66.267594 49.267594 -66.267594 49.267594 -64 47 C-63.01 50.96 -62.02 54.92 -61 59 C-59.17697722 57.17697722 -59.47784428 54.21385609 -59.1875 51.75 C-57.31028356 38.52903278 -53.89308307 28.95750614 -45 19 C-44.34 18.67 -43.68 18.34 -43 18 C-43.33 21.96 -43.66 25.92 -44 30 C-42.989375 28.515 -41.97875 27.03 -40.9375 25.5 C-32.50319212 13.54015143 -22.48347287 3.6500322 -7.75 0.25 C-5.14593449 0.01326677 -2.6130385 -0.07685407 0 0 Z " fill="#E51F26" transform="translate(140,81)"/>
<path d="M0 0 C0.66 0 1.32 0 2 0 C2.598125 1.0725 3.19625 2.145 3.8125 3.25 C5.00780378 5.36509428 6.14375584 7.17570159 7.6875 9.0625 C9.42078767 11.62116275 9.65507855 13.96469121 10 17 C9.33333333 12.33333333 8.66666667 7.66666667 8 3 C8.66 3 9.32 3 10 3 C14.38561911 9.8655823 17.7613841 15.72529627 16 24 C14.85081278 26.92628085 13.56959226 29.68162788 12.09375 32.45703125 C10.91770413 35.1913379 10.78867064 37.05723868 11 40 C10.34 40 9.68 40 9 40 C9 47.26 9 54.52 9 62 C8.01 62.495 8.01 62.495 7 63 C6.27840576 64.64363134 5.60648579 66.31050386 5 68 C2.69 68 0.38 68 -2 68 C-3.4216319 64.6828589 -4.39009109 61.55780196 -5 58 C-10.1053116 56.56693008 -14.65288525 55.38302522 -20 56 C-23.2027558 58.35992532 -24.25873922 60.18180767 -25 64 C-25.55404897 69.86013336 -25.03126602 73.82158722 -22 79 C-22 79.66 -22 80.32 -22 81 C-18.33552568 82.64800856 -15.18796534 83.33580973 -11.1875 83.625 C-9.72376953 83.73714844 -9.72376953 83.73714844 -8.23046875 83.8515625 C-7.12638672 83.92503906 -7.12638672 83.92503906 -6 84 C-6 81.69 -6 79.38 -6 77 C-0.72 77 4.56 77 10 77 C10 79.31 10 81.62 10 84 C13.3 84 16.6 84 20 84 C20 86.64 20 89.28 20 92 C19.36191406 92.13277344 18.72382813 92.26554687 18.06640625 92.40234375 C17.24011719 92.57894531 16.41382813 92.75554687 15.5625 92.9375 C14.73878906 93.11152344 13.91507813 93.28554687 13.06640625 93.46484375 C11.02338796 93.80752994 11.02338796 93.80752994 10 95 C9.31259507 99.81183448 11.27745968 102.17142767 14 106 C14 106.66 14 107.32 14 108 C17.3 108 20.6 108 24 108 C24.6987693 109.76641683 25.38366583 111.53832664 26.0625 113.3125 C26.44535156 114.29863281 26.82820313 115.28476563 27.22265625 116.30078125 C28 119 28 119 27 122 C26.44054687 121.85852539 25.88109375 121.71705078 25.3046875 121.57128906 C17.83839455 119.86376467 10.63592947 119.70105173 3 119.75 C1.7934375 119.74226563 0.586875 119.73453125 -0.65625 119.7265625 C-6.9470548 119.74023816 -12.79088883 120.08490433 -18.9140625 121.57128906 C-21 122 -21 122 -25 122 C-24.48594831 117.03083364 -23.76615118 112.70973649 -22 108 C-16.06 107.505 -16.06 107.505 -10 107 C-9.01 104.36 -8.02 101.72 -7 99 C-9.31 99 -11.62 99 -14 99 C-14.22945312 98.37996094 -14.45890625 97.75992188 -14.6953125 97.12109375 C-16.40215904 94.34619053 -17.81240445 94.04852854 -20.875 93.0625 C-26.86160699 90.83151984 -28.78500399 88.29981388 -31.75 82.6875 C-34.4030237 74.97760791 -34.42422467 64.35147521 -31.3125 56.8125 C-27.86031825 50.50747361 -23.6734979 47.53278247 -17.0859375 44.9921875 C-14.88026097 43.94304548 -13.67186831 42.74851556 -12 41 C-9.8125 40.3125 -9.8125 40.3125 -8 40 C-8 39.21625 -8 38.4325 -8 37.625 C-8 36.08333333 -8 34.54166667 -8 33 C-8.515625 32.278125 -9.03125 31.55625 -9.5625 30.8125 C-11.44779918 27.12387116 -10.89916216 24.97129953 -10 21 C-9.67 20.34 -9.34 19.68 -9 19 C-8.34 19 -7.68 19 -7 19 C-7 20.32 -7 21.64 -7 23 C-6.34 23 -5.68 23 -5 23 C-5.061875 22.13375 -5.12375 21.2675 -5.1875 20.375 C-4.97544498 16.55800967 -3.87955693 14.28922464 -2 11 C-1.34 11 -0.68 11 0 11 C0.495 14.96 0.495 14.96 1 19 C2.26561394 16.46877212 1.94193763 15.10926042 1.625 12.3125 C1.47611328 10.98025391 1.47611328 10.98025391 1.32421875 9.62109375 C0.92651786 6.40594556 0.48737918 3.20277747 0 0 Z " fill="#211D1E" transform="translate(155,83)"/>
<path d="M0 0 C0 1.98 0 3.96 0 6 C1.98 6 3.96 6 6 6 C6 4.02 6 2.04 6 0 C9.58490499 0.44654708 13.16753943 0.90928013 16.75 1.375 C17.76578125 1.50132812 18.7815625 1.62765625 19.828125 1.7578125 C20.8078125 1.88671875 21.7875 2.015625 22.796875 2.1484375 C23.69760742 2.26364746 24.59833984 2.37885742 25.52636719 2.49755859 C27.98580239 2.9971162 29.82476727 3.77032762 32 5 C31.67 5.99 31.34 6.98 31 8 C32.32 8 33.64 8 35 8 C35.33 7.34 35.66 6.68 36 6 C36.99 9.96 36.99 9.96 38 14 C33.25 17 33.25 17 31 17 C31 20.96 31 24.92 31 29 C20.45026628 29.82975434 20.45026628 29.82975434 16.64453125 27.65234375 C13.48819356 24.69124344 12.11713335 22.9203335 11.5625 18.5625 C11.706875 17.716875 11.85125 16.87125 12 16 C10.35 16 8.7 16 7 16 C7 19.96 7 23.92 7 28 C2.71 28 -1.58 28 -6 28 C-6.495 25.03 -6.495 25.03 -7 22 C-7.71414062 22.98226562 -8.42828125 23.96453125 -9.1640625 24.9765625 C-12.35520349 28.16770349 -14.82419077 28.46498458 -19.2734375 28.5859375 C-21.64133648 28.54625204 -24.00887973 28.47497691 -26.375 28.375 C-28.19451172 28.33439453 -28.19451172 28.33439453 -30.05078125 28.29296875 C-33.03568311 28.22245926 -36.01691838 28.12395076 -39 28 C-38.20926789 22.68544538 -36.71041914 18.19491345 -34.6875 13.25 C-34.39166016 12.48300781 -34.09582031 11.71601563 -33.79101562 10.92578125 C-33.49259766 10.19230469 -33.19417969 9.45882812 -32.88671875 8.703125 C-32.62076904 8.03958008 -32.35481934 7.37603516 -32.08081055 6.69238281 C-30.35099337 3.9837556 -28.00186206 3.23844702 -24.96484375 2.515625 C-19.33333333 1.77777778 -19.33333333 1.77777778 -16 4 C-15.67 3.01 -15.34 2.02 -15 1 C-10.03926578 -0.32286246 -5.08888488 -0.08893197 0 0 Z " fill="#1B1816" transform="translate(158,204)"/>
<path d="M0 0 C0.53375244 0.16064941 1.06750488 0.32129883 1.61743164 0.48681641 C4.49045041 1.10563856 7.18195605 1.16306809 10.12109375 1.2109375 C11.30380859 1.23929688 12.48652344 1.26765625 13.70507812 1.296875 C16.1893034 1.34887344 18.67370207 1.3931699 21.15820312 1.4296875 C22.93420898 1.47609375 22.93420898 1.47609375 24.74609375 1.5234375 C26.36535767 1.5531665 26.36535767 1.5531665 28.01733398 1.58349609 C31.3408782 2.04760074 33.18946964 3.24021136 36 5 C38.65245602 4.33903214 38.65245602 4.33903214 41 3 C44.13489746 1.95503418 46.51183176 1.81450512 49.8046875 1.71875 C51.51591797 1.66267578 51.51591797 1.66267578 53.26171875 1.60546875 C54.45410156 1.57066406 55.64648438 1.53585938 56.875 1.5 C59.22667799 1.43090826 61.5782512 1.35812898 63.9296875 1.28125 C64.97366699 1.25095703 66.01764648 1.22066406 67.09326172 1.18945312 C69.81628388 1.01197411 72.34263602 0.60453042 75 0 C76.15395711 1.41005725 77.29787466 2.82833458 78.4375 4.25 C79.07558594 5.03890625 79.71367187 5.8278125 80.37109375 6.640625 C81.91405605 8.87551524 82.67591756 10.32631991 83 13 C81.37610248 15.8147557 79.64840069 16.10425098 76.53515625 17.02734375 C70.63947915 18.43916296 64.63388351 18.7194761 58.6015625 19.12304688 C51.51273533 19.6915872 46.59720036 21.47918432 41 26 C39.5 24.9375 39.5 24.9375 38 23 C37.8125 19.3125 37.8125 19.3125 38 16 C44.62204063 13.35787268 50.52862427 12.54486592 57.625 12.4375 C63.78220164 12.31875397 69.14601288 11.99677095 75 10 C73.64480022 6.4764213 73.64480022 6.4764213 71 4 C66.47271843 3.2981449 62.05416853 3.67232781 57.5 4 C55.64568359 4.08701172 55.64568359 4.08701172 53.75390625 4.17578125 C46.59495183 4.51450041 46.59495183 4.51450041 40 7 C39.01 7 38.02 7 37 7 C37.05800781 8.03640625 37.11601562 9.0728125 37.17578125 10.140625 C37.22269038 11.51037156 37.26818932 12.88016692 37.3125 14.25 C37.35439453 14.93191406 37.39628906 15.61382812 37.43945312 16.31640625 C37.48828125 18.328125 37.48828125 18.328125 37 22 C34.48046875 24.484375 34.48046875 24.484375 32 26 C31.443125 25.38125 30.88625 24.7625 30.3125 24.125 C24.96793733 19.21378025 18.17047967 18.98693159 11.18798828 18.70922852 C-3.90707896 18.09292104 -3.90707896 18.09292104 -9 13 C-8.74329274 9.12454844 -6.48940667 7.00443895 -3.9375 4.25 C-3.20402344 3.45078125 -2.47054687 2.6515625 -1.71484375 1.828125 C-1.14894531 1.22484375 -0.58304688 0.6215625 0 0 Z " fill="#181515" transform="translate(121,234)"/>
<path d="M0 0 C3.58490499 0.44654708 7.16753943 0.90928013 10.75 1.375 C11.76578125 1.50132812 12.7815625 1.62765625 13.828125 1.7578125 C15.29765625 1.95117188 15.29765625 1.95117188 16.796875 2.1484375 C18.14797363 2.32125244 18.14797363 2.32125244 19.52636719 2.49755859 C21.98580239 2.9971162 23.82476727 3.77032762 26 5 C25.67 5.99 25.34 6.98 25 8 C26.32 8 27.64 8 29 8 C29.33 7.34 29.66 6.68 30 6 C30.66 8.64 31.32 11.28 32 14 C27.25 17 27.25 17 25 17 C25 20.96 25 24.92 25 29 C14.45026628 29.82975434 14.45026628 29.82975434 10.64453125 27.65234375 C7.48819356 24.69124344 6.11713335 22.9203335 5.5625 18.5625 C5.706875 17.716875 5.85125 16.87125 6 16 C5.236875 16.04125 4.47375 16.0825 3.6875 16.125 C1 16 1 16 -2 14 C-2.33 14.99 -2.66 15.98 -3 17 C-3 16.01 -3 15.02 -3 14 C-5.31 14 -7.62 14 -10 14 C-9.34 13.67 -8.68 13.34 -8 13 C-7.67 12.01 -7.34 11.02 -7 10 C-7 10.99 -7 11.98 -7 13 C-4.69 13 -2.38 13 0 13 C0 11.02 0 9.04 0 7 C-2.97 7 -5.94 7 -9 7 C-9 6.67 -9 6.34 -9 6 C-6.03 6 -3.06 6 0 6 C0 4.02 0 2.04 0 0 Z " fill="#171416" transform="translate(164,204)"/>
<path d="M0 0 C0.66 0 1.32 0 2 0 C2.8971875 1.60875 2.8971875 1.60875 3.8125 3.25 C5.00780378 5.36509428 6.14375584 7.17570159 7.6875 9.0625 C9.42078767 11.62116275 9.65507855 13.96469121 10 17 C9.33333333 12.33333333 8.66666667 7.66666667 8 3 C8.66 3 9.32 3 10 3 C14.37064574 9.84214185 17.79006843 15.74508012 16 24 C14.5998611 27.50756447 12.93168329 30.75753162 11 34 C8.08110852 34.16216064 5.17120775 34.28091202 2.25 34.375 C1.425 34.42527344 0.6 34.47554687 -0.25 34.52734375 C-2.63580555 34.58506485 -4.67668258 34.55307714 -7 34 C-9.58984375 31.2109375 -9.58984375 31.2109375 -11 28 C-10.82967999 24.59359971 -10.52575631 22.05151261 -9 19 C-8.34 19 -7.68 19 -7 19 C-7 20.32 -7 21.64 -7 23 C-6.34 23 -5.68 23 -5 23 C-5.0928125 21.700625 -5.0928125 21.700625 -5.1875 20.375 C-4.97544498 16.55800967 -3.87955693 14.28922464 -2 11 C-1.34 11 -0.68 11 0 11 C0.33 13.64 0.66 16.28 1 19 C2.26561394 16.46877212 1.94193763 15.10926042 1.625 12.3125 C1.52574219 11.42433594 1.42648438 10.53617188 1.32421875 9.62109375 C0.92651786 6.40594556 0.48737918 3.20277747 0 0 Z " fill="#E61C22" transform="translate(155,83)"/>
<path d="M0 0 C1.69140625 1.828125 1.69140625 1.828125 3.5625 4.25 C4.49255859 5.43335938 4.49255859 5.43335938 5.44140625 6.640625 C6.91159869 8.86617946 7.670139 10.3724865 8 13 C6.37610248 15.8147557 4.64840069 16.10425098 1.53515625 17.02734375 C-4.36052085 18.43916296 -10.36611649 18.7194761 -16.3984375 19.12304688 C-23.48726467 19.6915872 -28.40279964 21.47918432 -34 26 C-35.5 24.9375 -35.5 24.9375 -37 23 C-37.1875 19.3125 -37.1875 19.3125 -37 16 C-30.37795937 13.35787268 -24.47137573 12.54486592 -17.375 12.4375 C-11.21779836 12.31875397 -5.85398712 11.99677095 0 10 C-1.36309179 6.47510419 -1.36309179 6.47510419 -4 4 C-8.37151981 3.44883187 -12.61557936 3.65786313 -17 4 C-17 3.34 -17 2.68 -17 2 C-16.16855469 1.93941406 -15.33710938 1.87882813 -14.48046875 1.81640625 C-12.85044922 1.69072266 -12.85044922 1.69072266 -11.1875 1.5625 C-10.10855469 1.48128906 -9.02960938 1.40007812 -7.91796875 1.31640625 C-5.15209182 1.01649188 -2.75597229 0 0 0 Z " fill="#161314" transform="translate(196,234)"/>
<path d="M0 0 C0.75 2.625 0.75 2.625 1 5 C2.65 5 4.3 5 6 5 C6 5.33 6 5.66 6 6 C4.02 6 2.04 6 0 6 C0 6.99 0 7.98 0 9 C0.66 9.33 1.32 9.66 2 10 C1.01 10 0.02 10 -1 10 C-1 11.98 -1 13.96 -1 16 C0.32 16.33 1.64 16.66 3 17 C2.67 18.98 2.34 20.96 2 23 C1.67 23 1.34 23 1 23 C1 21.02 1 19.04 1 17 C-0.32 17 -1.64 17 -3 17 C-3 17.66 -3 18.32 -3 19 C-3.99 19 -4.98 19 -6 19 C-6.33 20.32 -6.66 21.64 -7 23 C-7 21.68 -7 20.36 -7 19 C-8.98 18.67 -10.96 18.34 -13 18 C-13 19.65 -13 21.3 -13 23 C-13.33 23 -13.66 23 -14 23 C-14 21.35 -14 19.7 -14 18 C-17.93075644 18.57452746 -17.93075644 18.57452746 -21 21 C-20.2867809 16.5574184 -18.81850255 12.48511447 -17.1875 8.3125 C-16.93935547 7.63638672 -16.69121094 6.96027344 -16.43554688 6.26367188 C-14.51966001 1.36426653 -14.51966001 1.36426653 -11.98828125 -0.41015625 C-3.5687725 -2.90788871 -3.5687725 -2.90788871 0 0 Z " fill="#131018" transform="translate(141,208)"/>
<path d="M0 0 C2.61035156 -0.29638672 2.61035156 -0.29638672 5.890625 -0.1796875 C7.66759766 -0.1178125 7.66759766 -0.1178125 9.48046875 -0.0546875 C10.72441406 0.00460938 11.96835938 0.06390625 13.25 0.125 C15.09271484 0.17914063 15.09271484 0.17914063 16.97265625 0.234375 C23.18244344 0.49003254 27.49716397 0.90530097 33 4 C33 6.97 33 9.94 33 13 C31.10314453 12.51853516 31.10314453 12.51853516 29.16796875 12.02734375 C22.98768375 10.65193094 16.85989208 10.61522133 10.55273438 10.52148438 C5.2867996 10.36469184 1.60064267 9.86109619 -3 7 C-2.38722388 4.03824877 -1.74627478 2.61941217 0 0 Z " fill="#F6F6F6" transform="translate(124,237)"/>
<path d="M0 0 C2.32421875 0.15551758 2.32421875 0.15551758 4.63671875 2.53051758 C6.32421875 5.15551758 6.32421875 5.15551758 6.32421875 7.15551758 C0.43741147 10.17563544 -4.55155466 10.64993595 -11.11328125 10.78051758 C-12.9245665 10.83223165 -14.73577066 10.88687654 -16.546875 10.94458008 C-17.84020752 10.98566895 -17.84020752 10.98566895 -19.15966797 11.02758789 C-22.70151969 11.2076704 -26.16587238 11.65468848 -29.67578125 12.15551758 C-30.1640625 6.19848633 -30.1640625 6.19848633 -29.67578125 4.15551758 C-25.26300132 0.0155961 -19.37376239 0.59853416 -13.67578125 0.46801758 C-12.6909375 0.43385742 -11.70609375 0.39969727 -10.69140625 0.36450195 C-5.34359403 0.22671277 -5.34359403 0.22671277 0 0 Z " fill="#F9F9F9" transform="translate(189.67578125,236.844482421875)"/>
<path d="M0 0 C2.625 2 2.625 2 4 5 C4.41085884 9.82540595 3.6399156 13.07776869 0.875 17.0625 C-2.78722648 19.53052219 -4.66116817 19.69731226 -9 19 C-11.75329021 17.20437595 -13.52627461 15.94745078 -15 13 C-15.54724071 7.30869663 -14.59333707 4.43882815 -11 0 C-7.48085715 -1.75957142 -3.72256803 -0.93724231 0 0 Z " fill="#151213" transform="translate(199,57)"/>
<path d="M0 0 C1.93835966 0.06010418 3.87584491 0.14891717 5.8125 0.25 C6.89144531 0.29640625 7.97039062 0.3428125 9.08203125 0.390625 C12 1 12 1 13.86328125 2.76953125 C15.76103826 6.49330876 15.51585081 9.92405203 15 14 C13.9375 17 13.9375 17 12 19 C7.39968876 20.21517655 3.6186289 20.01384537 -1 19 C-1.10655578 12.55929529 -0.96205088 6.37358711 0 0 Z " fill="#0F0C0D" transform="translate(164,51)"/>
<path d="M0 0 C0.33 0 0.66 0 1 0 C1.20625 1.216875 1.4125 2.43375 1.625 3.6875 C2.82130051 8.55876684 4.98322707 10.13087648 9 13 C10.01680311 13.98290968 11.02738219 14.97334787 12 16 C11.505 17.485 11.505 17.485 11 19 C9.68 19 8.36 19 7 19 C7 18.01 7 17.02 7 16 C-0.98268072 14.32773882 -8.86290495 12.71378027 -17 12 C-17.33 13.65 -17.66 15.3 -18 17 C-19.98 17 -21.96 17 -24 17 C-24 15.02 -24 13.04 -24 11 C-24.54269531 11.15597656 -25.08539063 11.31195313 -25.64453125 11.47265625 C-29.27086695 12.28452245 -32.93439754 12.39061812 -36.63671875 12.62109375 C-37.41660156 12.74613281 -38.19648438 12.87117187 -39 13 C-39.33 13.66 -39.66 14.32 -40 15 C-45.94 14.01 -45.94 14.01 -52 13 C-43.09994906 8.54997453 -33.78441207 8.68727941 -24 8.75 C-22.7934375 8.74226562 -21.586875 8.73453125 -20.34375 8.7265625 C-13.32307854 8.74182483 -6.8141512 9.27683619 0 11 C-0.185625 9.9275 -0.37125 8.855 -0.5625 7.75 C-0.9304568 4.59608454 -1.04465343 2.90181508 0 0 Z " fill="#E2E2E2" transform="translate(182,193)"/>
<path d="M0 0 C4.21654356 1.48635116 7.62478605 3.61249159 11.3125 6.125 C12.38113281 6.84945312 13.44976562 7.57390625 14.55078125 8.3203125 C15.76314453 9.15175781 15.76314453 9.15175781 17 10 C16.02262231 11.64689635 15.0430468 13.29248854 14.0625 14.9375 C13.24458984 16.31228516 13.24458984 16.31228516 12.41015625 17.71484375 C11 20 11 20 10 21 C7.0625 21.1875 7.0625 21.1875 4 21 C1.64046906 18.64046906 1.50858587 17.22104383 1 14 C-1.97 14 -4.94 14 -8 14 C-7.34 12.68 -6.68 11.36 -6 10 C-3.6171875 9.390625 -3.6171875 9.390625 -0.875 9.25 C0.03507813 9.19328125 0.94515625 9.1365625 1.8828125 9.078125 C2.93082031 9.03945312 2.93082031 9.03945312 4 9 C4.33 8.01 4.66 7.02 5 6 C3.7934375 5.566875 3.7934375 5.566875 2.5625 5.125 C0 4 0 4 -1 2 C-0.67 1.34 -0.34 0.68 0 0 Z " fill="#151213" transform="translate(242,216)"/>
<path d="M0 0 C9.405 1.485 9.405 1.485 19 3 C18.67 4.98 18.34 6.96 18 9 C14.04 9.66 10.08 10.32 6 11 C9.3 12.65 12.6 14.3 16 16 C16 17.98 16 19.96 16 22 C6.595 20.515 6.595 20.515 -3 19 C-2.67 17.68 -2.34 16.36 -2 15 C3.94 15.99 3.94 15.99 10 17 C6.04 15.02 2.08 13.04 -2 11 C-2 9.68 -2 8.36 -2 7 C2.62 6.67 7.24 6.34 12 6 C8.37 5.34 4.74 4.68 1 4 C0.67 2.68 0.34 1.36 0 0 Z " fill="#0F0D0D" transform="translate(256,175)"/>
<path d="M0 0 C5.75 0.75 5.75 0.75 8 3 C8 3.99 8 4.98 8 6 C10.97 5.34 13.94 4.68 17 4 C16.67 5.32 16.34 6.64 16 8 C13.96875 8.94140625 13.96875 8.94140625 11.5 9.5625 C9.07263988 10.12431977 9.07263988 10.12431977 7 11 C6.67 11.99 6.34 12.98 6 14 C8.31 14.66 10.62 15.32 13 16 C13 16.99 13 17.98 13 19 C6.3227105 18.39297368 0.29872004 16.22368606 -6 14 C-5.57316761 12.41375765 -5.13303842 10.8310902 -4.6875 9.25 C-4.32205078 7.92742187 -4.32205078 7.92742187 -3.94921875 6.578125 C-2.97874669 3.94227495 -1.78994356 2.14592674 0 0 Z " fill="#131111" transform="translate(51,126)"/>
<path d="M0 0 C-0.30276876 6.05537521 -3.27754038 9.51483458 -7 14 C-6.45730469 13.7834375 -5.91460937 13.566875 -5.35546875 13.34375 C-4.64003906 13.0653125 -3.92460938 12.786875 -3.1875 12.5 C-2.47980469 12.2215625 -1.77210937 11.943125 -1.04296875 11.65625 C1 11 1 11 4 11 C4.33 11.99 4.66 12.98 5 14 C2.20964954 15.00380916 -0.58214855 16.0031945 -3.375 17 C-4.56609375 17.42925781 -4.56609375 17.42925781 -5.78125 17.8671875 C-6.54179688 18.13789063 -7.30234375 18.40859375 -8.0859375 18.6875 C-8.7876709 18.93886719 -9.4894043 19.19023437 -10.21240234 19.44921875 C-12 20 -12 20 -14 20 C-14.7421875 18.2890625 -14.7421875 18.2890625 -15 16 C-13.3828125 13.7109375 -13.3828125 13.7109375 -11.125 11.375 C-8.21087124 8.43499103 -8.21087124 8.43499103 -6 5 C-6.69867188 5.28875 -7.39734375 5.5775 -8.1171875 5.875 C-9.02726562 6.24625 -9.93734375 6.6175 -10.875 7 C-12.23238281 7.556875 -12.23238281 7.556875 -13.6171875 8.125 C-16 9 -16 9 -18 9 C-18.33 8.01 -18.66 7.02 -19 6 C-16.58660204 4.99141578 -14.16981325 3.99297327 -11.75 3 C-11.06808594 2.71382812 -10.38617188 2.42765625 -9.68359375 2.1328125 C-6.18584265 0.70654506 -3.83099811 0 0 0 Z " fill="#141212" transform="translate(66,195)"/>
<path d="M0 0 C2.91687906 0.61096791 5.13415334 1.51314558 7.671875 3.06640625 C8.33574219 3.46923828 8.99960938 3.87207031 9.68359375 4.28710938 C10.36550781 4.70798828 11.04742187 5.12886719 11.75 5.5625 C12.44738281 5.98724609 13.14476563 6.41199219 13.86328125 6.84960938 C15.57835717 7.89510086 17.28956473 8.94693351 19 10 C18.01 11.485 18.01 11.485 17 13 C15.63875 12.6596875 15.63875 12.6596875 14.25 12.3125 C11.0557975 11.7251288 11.0557975 11.7251288 8.625 13.125 C6.521678 15.55191001 6.91995236 16.87814214 7 20 C6.01 20.66 5.02 21.32 4 22 C2.93656967 18.90285944 1.90311111 15.79652594 0.875 12.6875 C0.57207031 11.80642578 0.26914063 10.92535156 -0.04296875 10.01757812 C-0.32011719 9.17001953 -0.59726563 8.32246094 -0.8828125 7.44921875 C-1.14465332 6.66893311 -1.40649414 5.88864746 -1.67626953 5.0847168 C-2 3 -2 3 0 0 Z " fill="#100E0F" transform="translate(89,73)"/>
<path d="M0 0 C1.32 0.33 2.64 0.66 4 1 C4 5.95 4 10.9 4 16 C4.66 16 5.32 16 6 16 C6.37125 14.6696875 6.37125 14.6696875 6.75 13.3125 C8.03934768 9.89572865 9.59980129 7.7202252 12 5 C12.99 6.485 12.99 6.485 14 8 C11.03 13.28 8.06 18.56 5 24 C3.68 23.34 2.36 22.68 1 22 C0.390625 18.7421875 0.390625 18.7421875 0.25 14.875 C0.19328125 13.59367187 0.1365625 12.31234375 0.078125 10.9921875 C0.05234375 10.00476563 0.0265625 9.01734375 0 8 C-1.65 10.97 -3.3 13.94 -5 17 C-5.99 17 -6.98 17 -8 17 C-7.41734728 12.57676318 -5.73233789 9.4844136 -3.4375 5.6875 C-2.79683594 4.61886719 -2.15617188 3.55023438 -1.49609375 2.44921875 C-1.00238281 1.64097656 -0.50867188 0.83273438 0 0 Z " fill="#0D0B0B" transform="translate(211,64)"/>
<path d="M0 0 C0.99 0 1.98 0 3 0 C3.74507544 6.37305598 4.10349817 12.58311325 4 19 C2.68 19 1.36 19 0 19 C-1.921875 16.8125 -1.921875 16.8125 -3.75 14 C-4.67039063 12.6078125 -4.67039063 12.6078125 -5.609375 11.1875 C-6.06828125 10.465625 -6.5271875 9.74375 -7 9 C-7 12.63 -7 16.26 -7 20 C-8.32 20 -9.64 20 -11 20 C-11.33 13.73 -11.66 7.46 -12 1 C-10.68 1 -9.36 1 -8 1 C-6.078125 2.96875 -6.078125 2.96875 -4.25 5.5 C-3.32960937 6.75296875 -3.32960937 6.75296875 -2.390625 8.03125 C-1.70226562 9.00578125 -1.70226562 9.00578125 -1 10 C-0.67 6.7 -0.34 3.4 0 0 Z " fill="#1B1919" transform="translate(153,51)"/>
<path d="M0 0 C1.65 0.33 3.3 0.66 5 1 C4.34 4.63 3.68 8.26 3 12 C5.31 9.69 7.62 7.38 10 5 C11.65 5.66 13.3 6.32 15 7 C9.9977221 17.55808656 9.9977221 17.55808656 6 22 C5.34 21.67 4.68 21.34 4 21 C5.45044271 16.89041233 7.51110752 13.56741255 10 10 C9.236875 10.763125 8.47375 11.52625 7.6875 12.3125 C6.800625 13.199375 5.91375 14.08625 5 15 C4.484375 15.61875 3.96875 16.2375 3.4375 16.875 C2.7259375 17.431875 2.7259375 17.431875 2 18 C0.68 17.67 -0.64 17.34 -2 17 C-1.01 13.04 -0.02 9.08 1 5 C-1.97 9.95 -1.97 9.95 -5 15 C-5.66 14.67 -6.32 14.34 -7 14 C-5.53967505 8.68972746 -3.01679014 4.53669968 0 0 Z " fill="#E51016" transform="translate(103,250)"/>
<path d="M0 0 C6.6 0 13.2 0 20 0 C20.33 1.32 20.66 2.64 21 4 C19.0859375 6.47265625 19.0859375 6.47265625 16.375 9.0625 C15.49585938 9.91972656 14.61671875 10.77695313 13.7109375 11.66015625 C11.24199318 13.79113269 8.8495254 15.43121796 6 17 C5.375 15.25 5.375 15.25 5 13 C5.350625 12.360625 5.70125 11.72125 6.0625 11.0625 C7.2667209 8.9529824 7.2667209 8.9529824 6.4375 6.3125 C5.19173884 3.74523104 5.19173884 3.74523104 2.375 3.1875 C1.59125 3.125625 0.8075 3.06375 0 3 C0 2.01 0 1.02 0 0 Z " fill="#181515" transform="translate(247,124)"/>
<path d="M0 0 C5.28 0 10.56 0 16 0 C16 2.31 16 4.62 16 7 C19.3 7 22.6 7 26 7 C22.32070555 9.45286296 20.52622093 9.23228878 16.14453125 9.1953125 C15.48289474 9.1924826 14.82125824 9.18965271 14.13957214 9.18673706 C12.03036263 9.17555918 9.92158075 9.15045981 7.8125 9.125 C6.38086552 9.11496707 4.94922436 9.10584176 3.51757812 9.09765625 C0.01158023 9.07562795 -3.49416813 9.04111485 -7 9 C-7 8.67 -7 8.34 -7 8 C-3.535 7.505 -3.535 7.505 0 7 C0 4.69 0 2.38 0 0 Z " fill="#131011" transform="translate(149,160)"/>
<path d="M0 0 C0.33 0.33 0.66 0.66 1 1 C0.71269945 3.33944736 0.38063221 5.6739143 0 8 C0.78375 8.144375 1.5675 8.28875 2.375 8.4375 C5 9 5 9 7 10 C6.67 10.99 6.34 11.98 6 13 C2.37 12.01 -1.26 11.02 -5 10 C-4.01 12.31 -3.02 14.62 -2 17 C-3.32 17 -4.64 17 -6 17 C-7.95703125 14.69921875 -7.95703125 14.69921875 -9.8125 11.6875 C-10.43769531 10.70136719 -11.06289062 9.71523438 -11.70703125 8.69921875 C-13 6 -13 6 -12 3 C-4.93894737 -1.88842105 -4.93894737 -1.88842105 0 0 Z " fill="#E5171D" transform="translate(216,252)"/>
<path d="M0 0 C3.1875 0.3125 3.1875 0.3125 5.5 1.9375 C7.52508712 4.78762262 7.96138755 6.84544243 8.1875 10.3125 C7.8575 10.9725 7.5275 11.6325 7.1875 12.3125 C6.5275 12.3125 5.8675 12.3125 5.1875 12.3125 C4.94 11.19875 4.6925 10.085 4.4375 8.9375 C3.57744661 5.26634802 3.57744661 5.26634802 1.0625 3.875 C0.44375 3.689375 -0.175 3.50375 -0.8125 3.3125 C-0.296875 4.50875 0.21875 5.705 0.75 6.9375 C2.17806419 10.75469527 2.51061714 13.34314857 1.1875 17.3125 C-1.8125 19.3125 -1.8125 19.3125 -4.75 19.3125 C-7.8125 18.3125 -7.8125 18.3125 -10.25 15.625 C-12.0198425 11.8729339 -11.93337653 10.23556785 -10.8125 6.3125 C-9.8225 6.3125 -8.8325 6.3125 -7.8125 6.3125 C-6.581106 8.77528801 -6.74090804 10.5920055 -6.8125 13.3125 C-4.3375 14.3025 -4.3375 14.3025 -1.8125 15.3125 C-2.1425 14.301875 -2.4725 13.29125 -2.8125 12.25 C-3.87529378 8.54906562 -4.04397961 5.17049351 -3.8125 1.3125 C-2.8125 0.3125 -2.8125 0.3125 0 0 Z " fill="#161314" transform="translate(245.8125,93.6875)"/>
<path d="M0 0 C2.99220268 1.36370299 5.29026529 2.94908083 7.75 5.125 C8.67039063 5.93324219 8.67039063 5.93324219 9.609375 6.7578125 C10.06828125 7.16773437 10.5271875 7.57765625 11 8 C10.67 8.99 10.34 9.98 10 11 C5.545 8.03 5.545 8.03 1 5 C0.53590278 9.00022661 0.53590278 9.00022661 3 11.0625 C3.66 11.701875 4.32 12.34125 5 13 C5 13.99 5 14.98 5 16 C1.88801935 14.50163895 -1.0534615 12.80066242 -4 11 C-4.66 12.32 -5.32 13.64 -6 15 C-3.69 16.98 -1.38 18.96 1 21 C0.67 21.66 0.34 22.32 0 23 C-3.23861303 21.55575365 -5.61969163 19.74227753 -8.25 17.375 C-8.95640625 16.74335937 -9.6628125 16.11171875 -10.390625 15.4609375 C-10.92171875 14.97882813 -11.4528125 14.49671875 -12 14 C-8.34161026 8.88863277 -4.55388068 4.33702922 0 0 Z " fill="#151213" transform="translate(231,77)"/>
<path d="M0 0 C0.66 0.99 1.32 1.98 2 3 C-0.98241547 3.77321882 -3.97580475 4.41196203 -7 5 C-7.33 5.99 -7.66 6.98 -8 8 C-7.16855469 7.89300781 -6.33710937 7.78601563 -5.48046875 7.67578125 C-4.39378906 7.55589844 -3.30710937 7.43601562 -2.1875 7.3125 C-1.10855469 7.18488281 -0.02960938 7.05726562 1.08203125 6.92578125 C4 7 4 7 5.859375 8.328125 C7.50410887 10.73889931 7.48793901 12.14207149 7 15 C5.2899283 17.56510755 3.99011618 18.77325584 0.953125 19.46875 C-1.02309755 19.72103373 -3.01215186 19.86747679 -5 20 C-5.99 18.68 -6.98 17.36 -8 16 C-4.89139894 15.0008068 -3.11388708 15.16963011 0 16 C0.66 15.67 1.32 15.34 2 15 C2.65213292 12.97536745 2.65213292 12.97536745 3 11 C2.24074219 11.10699219 1.48148438 11.21398437 0.69921875 11.32421875 C-0.29464844 11.44410156 -1.28851563 11.56398438 -2.3125 11.6875 C-3.29863281 11.81511719 -4.28476563 11.94273438 -5.30078125 12.07421875 C-8 12 -8 12 -9.82421875 10.671875 C-11 9 -11 9 -11.5 6.5625 C-11 4 -11 4 -8.875 1.6875 C-5.55358454 -0.26202646 -3.78702122 -0.58909219 0 0 Z " fill="#181516" transform="translate(115,61)"/>
<path d="M0 0 C-0.25 1.875 -0.25 1.875 -1 4 C-2.33333333 4.66666667 -3.66666667 5.33333333 -5 6 C-5.80528889 8.05000871 -5.80528889 8.05000871 -6 10 C-3.23195179 8.41825817 -0.878578 6.8907202 1.5 4.75 C4 3 4 3 6.6875 3.125 C9 4 9 4 11 6 C11.51445847 10.63012619 10.77170651 13.26885662 8 17 C5.29120665 18.35439668 2.99066732 18.06501451 0 18 C0.33 17.01 0.66 16.02 1 15 C1.825 14.71125 2.65 14.4225 3.5 14.125 C4.325 13.75375 5.15 13.3825 6 13 C6.89386164 10.45224694 6.89386164 10.45224694 7 8 C4.11544106 8.41207985 3.12985108 8.85716381 1.125 11.0625 C-1 13 -1 13 -4.125 13.375 C-7 13 -7 13 -9 11 C-8.85566677 7.10300292 -8.53542766 4.72005789 -6.1875 1.5625 C-4 0 -4 0 0 0 Z " fill="#0E0B0C" transform="translate(64,107)"/>
<path d="M0 0 C0.99 0 1.98 0 3 0 C3 3.63 3 7.26 3 11 C4.32 11 5.64 11 7 11 C7.33 8.03 7.66 5.06 8 2 C8.99 2 9.98 2 11 2 C10.67 5.3 10.34 8.6 10 12 C11.98 12 13.96 12 16 12 C16.33 8.37 16.66 4.74 17 1 C17.99 1 18.98 1 20 1 C19.67 5.95 19.34 10.9 19 16 C12.4 15.34 5.8 14.68 -1 14 C-0.67 9.38 -0.34 4.76 0 0 Z " fill="#0C0A0A" transform="translate(43,148)"/>
<path d="M0 0 C2.93507943 2.06248825 3.84435488 3.54279245 5 6.9375 C5 10 5 10 3.75 12.5 C-0.33925542 16.21750493 -5.08261463 18.53282906 -10 21 C-10.33 19.68 -10.66 18.36 -11 17 C-10.2059375 16.55269531 -9.411875 16.10539062 -8.59375 15.64453125 C-7.5728125 15.03996094 -6.551875 14.43539062 -5.5 13.8125 C-4.4790625 13.22082031 -3.458125 12.62914062 -2.40625 12.01953125 C0.28710464 10.22379686 0.28710464 10.22379686 0.34375 7.26171875 C0.2303125 6.51535156 0.116875 5.76898438 0 5 C-1.74387622 4.20574827 -1.74387622 4.20574827 -4 4 C-6.55495519 5.22648832 -6.55495519 5.22648832 -9.0625 7 C-11.66015625 8.75 -11.66015625 8.75 -14 10 C-14.99 9.67 -15.98 9.34 -17 9 C-15.52541053 4.5762316 -12.50383629 3.49399194 -8.57421875 1.24609375 C-5.42675891 -0.27748696 -3.43146871 -0.81701636 0 0 Z " fill="#141111" transform="translate(74,215)"/>
<path d="M0 0 C3.37431362 1.23892709 6.69199751 2.59442582 10 4 C10 5.32 10 6.64 10 8 C9.43152344 7.79503906 8.86304688 7.59007812 8.27734375 7.37890625 C3.4915546 5.70907331 -0.95943201 4.53623064 -6 4 C-6.33 5.65 -6.66 7.3 -7 9 C-5.3970947 9.81498562 -3.79262722 10.62689927 -2.1875 11.4375 C-1.29417969 11.88996094 -0.40085937 12.34242188 0.51953125 12.80859375 C3.03999478 14.0831605 3.03999478 14.0831605 6 15 C5.67 16.32 5.34 17.64 5 19 C2.89216499 18.23925498 0.78883243 17.46602644 -1.3125 16.6875 C-2.48425781 16.25824219 -3.65601563 15.82898438 -4.86328125 15.38671875 C-7.64952074 14.15494413 -9.22658209 13.42513332 -11 11 C-11.60270082 6.37929373 -10.76352321 3.7201274 -8 0 C-4.99552601 -1.502237 -3.28001811 -0.76143278 0 0 Z " fill="#131011" transform="translate(258,200)"/>
<path d="M0 0 C3.03493874 0.25883257 4.61929966 0.66047745 6.9140625 2.70703125 C7.76097656 3.74923828 7.76097656 3.74923828 8.625 4.8125 C9.19476563 5.49957031 9.76453125 6.18664062 10.3515625 6.89453125 C11.9293371 8.90974573 13.47550747 10.94424492 15 13 C13.783125 12.814375 12.56625 12.62875 11.3125 12.4375 C7.97022061 12.01006818 5.28031583 12.07741117 2 13 C2 14.65 2 16.3 2 18 C1.01 18.33 0.02 18.66 -1 19 C-1.02683987 16.02077407 -1.04676037 13.04178705 -1.0625 10.0625 C-1.07087891 9.21236328 -1.07925781 8.36222656 -1.08789062 7.48632812 C-1.09111328 6.67744141 -1.09433594 5.86855469 -1.09765625 5.03515625 C-1.10289307 4.2862915 -1.10812988 3.53742676 -1.11352539 2.76586914 C-1 1 -1 1 0 0 Z " fill="#E5060E" transform="translate(194,259)"/>
<path d="M0 0 C-0.52540643 5.884552 -1.77425414 10.52837475 -4 16 C-4.33 16.99 -4.66 17.98 -5 19 C-6.98 19 -8.96 19 -11 19 C-11.14991601 15.77680586 -11.18405727 13.44390284 -9.9375 10.4375 C-8.80563721 7.49465674 -9.36405524 6.02073763 -10 3 C-8 0 -8 0 -5.5625 -0.75 C-3 -1 -3 -1 0 0 Z " fill="#7A760F" transform="translate(151,205)"/>
<path d="M0 0 C0.99 0.33 1.98 0.66 3 1 C4.0712828 7.02596573 4.09945415 12.88909517 4 19 C3.01 18.67 2.02 18.34 1 18 C1 16.68 1 15.36 1 14 C-3.77762638 12.98312954 -3.77762638 12.98312954 -8.4375 13.9375 C-8.953125 14.288125 -9.46875 14.63875 -10 15 C-10.33 14.34 -10.66 13.68 -11 13 C-9.54300902 11.20724155 -8.08436345 9.41582771 -6.625 7.625 C-5.40683594 6.12839844 -5.40683594 6.12839844 -4.1640625 4.6015625 C-2 2 -2 2 0 0 Z " fill="#E50E12" transform="translate(123,259)"/>
<path d="M0 0 C1.65 0.33 3.3 0.66 5 1 C5.67184618 3.10251861 6.33730968 5.20707763 7 7.3125 C7.37125 8.48425781 7.7425 9.65601563 8.125 10.86328125 C9 14 9 14 9 17 C8.01 17 7.02 17 6 17 C5.67 15.68 5.34 14.36 5 13 C1.58357241 12.74984127 1.58357241 12.74984127 -2 13 C-2.99 14.485 -2.99 14.485 -4 16 C-4.99 16 -5.98 16 -7 16 C-5.35433477 10.31497465 -2.70967216 5.23318364 0 0 Z " fill="#E5181F" transform="translate(152,266)"/>
<path d="M0 0 C2.64 0 5.28 0 8 0 C7.34 2.31 6.68 4.62 6 7 C-2.25 7 -10.5 7 -19 7 C-19 6.01 -19 5.02 -19 4 C-18.34 4 -17.68 4 -17 4 C-16.67 3.01 -16.34 2.02 -16 1 C-10.54230189 0.88861841 -5.38490641 1.08342019 0 2 C0 1.34 0 0.68 0 0 Z " fill="#78753E" transform="translate(138,225)"/>
<path d="M0 0 C6.86036401 0.65965039 13.34443923 2.2362764 20 4 C20 5.65 20 7.3 20 9 C14.06 11.64 8.12 14.28 2 17 C2.33 15.35 2.66 13.7 3 12 C6.48655858 9.79710417 10.1537614 8.54733737 14 7 C9.38 5.68 4.76 4.36 0 3 C0 2.01 0 1.02 0 0 Z " fill="#121010" transform="translate(42,169)"/>
<path d="M0 0 C1.98 0 3.96 0 6 0 C6 1.32 6 2.64 6 4 C6.66 4 7.32 4 8 4 C8 3.01 8 2.02 8 1 C10.64 1.33 13.28 1.66 16 2 C16 2.99 16 3.98 16 5 C18.97 5.495 18.97 5.495 22 6 C22 6.99 22 7.98 22 9 C15.07 8.505 15.07 8.505 8 8 C8 8.99 8 9.98 8 11 C7.01 10.67 6.02 10.34 5 10 C5 9.01 5 8.02 5 7 C1.7 7 -1.6 7 -5 7 C-5 6.01 -5 5.02 -5 4 C-3.35 4 -1.7 4 0 4 C0 2.68 0 1.36 0 0 Z " fill="#BFB80B" transform="translate(172,207)"/>
<path d="M0 0 C2.8125 0.8125 2.8125 0.8125 3.8125 1.8125 C4.39318118 8.89681044 4.39318118 8.89681044 2.1875 12.375 C-0.1875 13.8125 -0.1875 13.8125 -3.375 13.625 C-6.1875 12.8125 -6.1875 12.8125 -7.1875 11.8125 C-7.76818118 4.72818956 -7.76818118 4.72818956 -5.5625 1.25 C-3.1875 -0.1875 -3.1875 -0.1875 0 0 Z " fill="#F3F3F3" transform="translate(195.1875,59.1875)"/>
<path d="M0 0 C0.66 1.32 1.32 2.64 2 4 C-0.97 4 -3.94 4 -7 4 C-5.05 6.35 -5.05 6.35 -1.5 6.5 C2 7 2 7 4 9 C4.375 11.4375 4.375 11.4375 4 14 C2.4375 15.8125 2.4375 15.8125 0 17 C-3.75 17.1875 -3.75 17.1875 -7 17 C-7.66 15.68 -8.32 14.36 -9 13 C-8.01 12.67 -7.02 12.34 -6 12 C-6 12.66 -6 13.32 -6 14 C-4.02 13.67 -2.04 13.34 0 13 C0.33 12.01 0.66 11.02 1 10 C0.28972656 9.93941406 -0.42054688 9.87882812 -1.15234375 9.81640625 C-2.07144531 9.73261719 -2.99054688 9.64882813 -3.9375 9.5625 C-5.31228516 9.44068359 -5.31228516 9.44068359 -6.71484375 9.31640625 C-9 9 -9 9 -10 8 C-10.25 5.0625 -10.25 5.0625 -10 2 C-6.3558226 -0.4294516 -4.28758728 -0.16179575 0 0 Z " fill="#E51318" transform="translate(187,263)"/>
<path d="M0 0 C0.66 0 1.32 0 2 0 C2.33 1.98 2.66 3.96 3 6 C3.70125 5.34 4.4025 4.68 5.125 4 C8.43460229 1.69766797 10.06225823 1.63369844 14 2 C12.7934375 2.86625 12.7934375 2.86625 11.5625 3.75 C8.88048596 6.10493916 8.39253495 6.61438602 8 10 C8.51695439 12.39318762 8.51695439 12.39318762 9.4375 14.75 C9.72496094 15.54921875 10.01242188 16.3484375 10.30859375 17.171875 C10.65083984 18.07679688 10.65083984 18.07679688 11 19 C9.109375 18.75390625 9.109375 18.75390625 7 18 C5.953125 16.15234375 5.953125 16.15234375 5.25 13.9375 C5.00765625 13.20402344 4.7653125 12.47054688 4.515625 11.71484375 C4.26039063 10.86599609 4.26039063 10.86599609 4 10 C2.68 10.33 1.36 10.66 0 11 C0 12.65 0 14.3 0 16 C-0.99 16 -1.98 16 -3 16 C-2.57910004 10.39538469 -2.08386889 5.27913453 0 0 Z " fill="#E5191E" transform="translate(133,263)"/>
<path d="M0 0 C3.58490499 0.44654708 7.16753943 0.90928013 10.75 1.375 C11.76578125 1.50132812 12.7815625 1.62765625 13.828125 1.7578125 C15.29765625 1.95117188 15.29765625 1.95117188 16.796875 2.1484375 C18.14797363 2.32125244 18.14797363 2.32125244 19.52636719 2.49755859 C21.98580239 2.9971162 23.82476727 3.77032762 26 5 C25.67 5.99 25.34 6.98 25 8 C26.32 8 27.64 8 29 8 C29.33 7.34 29.66 6.68 30 6 C30 6.99 30 7.98 30 9 C27.69 9 25.38 9 23 9 C23.33 7.68 23.66 6.36 24 5 C23.05125 5.020625 22.1025 5.04125 21.125 5.0625 C18 5 18 5 16 4 C16 4.99 16 5.98 16 7 C16.99 7.33 17.98 7.66 19 8 C16.03 8 13.06 8 10 8 C11.32 7.67 12.64 7.34 14 7 C14 5.68 14 4.36 14 3 C12.02 3 10.04 3 8 3 C8 4.32 8 5.64 8 7 C6.35 7 4.7 7 3 7 C2.67 7.99 2.34 8.98 2 10 C1.01 11.485 1.01 11.485 0 13 C0 11.02 0 9.04 0 7 C-2.97 7 -5.94 7 -9 7 C-9 6.67 -9 6.34 -9 6 C-6.03 6 -3.06 6 0 6 C0 4.02 0 2.04 0 0 Z " fill="#3E3B12" transform="translate(164,204)"/>
<path d="M0 0 C1.134375 0.28875 2.26875 0.5775 3.4375 0.875 C4.0975 2.195 4.7575 3.515 5.4375 4.875 C2.4675 4.545 -0.5025 4.215 -3.5625 3.875 C-3.2325 4.535 -2.9025 5.195 -2.5625 5.875 C-0.23239091 6.55284992 2.10109824 7.21916793 4.4375 7.875 C5.0975 8.535 5.7575 9.195 6.4375 9.875 C6.1875 12.9375 6.1875 12.9375 5.4375 15.875 C3.20859005 16.98945498 1.90694894 17.03980286 -0.5625 17.0625 C-1.614375 17.08376953 -1.614375 17.08376953 -2.6875 17.10546875 C-4.5625 16.875 -4.5625 16.875 -6.5625 14.875 C-6.5625 13.885 -6.5625 12.895 -6.5625 11.875 C-5.5725 11.875 -4.5825 11.875 -3.5625 11.875 C-3.2325 12.535 -2.9025 13.195 -2.5625 13.875 C-0.5825 13.875 1.3975 13.875 3.4375 13.875 C3.1075 12.885 2.7775 11.895 2.4375 10.875 C0.59558143 10.10897184 0.59558143 10.10897184 -1.5625 9.75 C-5.48626682 8.95123318 -5.48626682 8.95123318 -6.5625 7.875 C-6.8125 4.9375 -6.8125 4.9375 -6.5625 1.875 C-3.5625 -0.125 -3.5625 -0.125 0 0 Z " fill="#E61D23" transform="translate(169.5625,265.125)"/>
<path d="M0 0 C3.375 0.3125 3.375 0.3125 7 1 C9.1202151 4.18032265 9.2495865 4.54567399 8.75 8.0625 C8.61851562 9.10083984 8.61851562 9.10083984 8.484375 10.16015625 C8 12 8 12 6 14 C3.69 14 1.38 14 -1 14 C-0.67 9.38 -0.34 4.76 0 0 Z " fill="#EAEAEA" transform="translate(167,54)"/>
<path d="M0 0 C0.99 0.33 1.98 0.66 3 1 C2.34 2.98 1.68 4.96 1 7 C4.3 9.97 7.6 12.94 11 16 C10.67 16.99 10.34 17.98 10 19 C5.904387 17.18176822 3.06529279 14.47545937 -0.1953125 11.4609375 C-1.87209773 9.79026726 -1.87209773 9.79026726 -4 10 C-4.99 11.485 -4.99 11.485 -6 13 C-6.99 12.67 -7.98 12.34 -9 12 C-7.55575365 8.76138697 -5.74227753 6.38030837 -3.375 3.75 C-2.74335937 3.04359375 -2.11171875 2.3371875 -1.4609375 1.609375 C-0.97882813 1.07828125 -0.49671875 0.5471875 0 0 Z " fill="#1A1718" transform="translate(78,82)"/>
<path d="M0 0 C0.33 0 0.66 0 1 0 C1.33 1.65 1.66 3.3 2 5 C5.3 5.66 8.6 6.32 12 7 C11.67 8.32 11.34 9.64 11 11 C7.25 12.125 7.25 12.125 5 11 C5 10.34 5 9.68 5 9 C2.525 10.485 2.525 10.485 0 12 C-0.165 11.401875 -0.33 10.80375 -0.5 10.1875 C-2.81276204 6.81472202 -6.19891337 6.1668452 -10 5 C-10 4.01 -10 3.02 -10 2 C-6.37471432 1.79859524 -4.13498292 2.14223235 -1 4 C-0.67 2.68 -0.34 1.36 0 0 Z " fill="#FAE6E6" transform="translate(176,266)"/>
<path d="M0 0 C0.99 0 1.98 0 3 0 C3.33 4.95 3.66 9.9 4 15 C3.01 15 2.02 15 1 15 C1 13.35 1 11.7 1 10 C-7.415 10.495 -7.415 10.495 -16 11 C-16 10.01 -16 9.02 -16 8 C-10.72 7.34 -5.44 6.68 0 6 C0 4.02 0 2.04 0 0 Z " fill="#0E0C0D" transform="translate(271,147)"/>
<path d="M0 0 C9.405 1.485 9.405 1.485 19 3 C18.67 4.98 18.34 6.96 18 9 C13.38 9.33 8.76 9.66 4 10 C4 9.34 4 8.68 4 8 C3.34 7.67 2.68 7.34 2 7 C5.3 6.67 8.6 6.34 12 6 C8.37 5.34 4.74 4.68 1 4 C0.67 2.68 0.34 1.36 0 0 Z " fill="#080707" transform="translate(256,175)"/>
<path d="M0 0 C0.33 0.99 0.66 1.98 1 3 C3.97 2.34 6.94 1.68 10 1 C9.67 2.32 9.34 3.64 9 5 C6.96875 5.94140625 6.96875 5.94140625 4.5 6.5625 C2.07263988 7.12431977 2.07263988 7.12431977 0 8 C-0.33 8.99 -0.66 9.98 -1 11 C1.31 11.66 3.62 12.32 6 13 C6 13.99 6 14.98 6 16 C1.428721 15.45144652 -2.67435795 14.58255197 -7 13 C-6.2884375 12.1028125 -6.2884375 12.1028125 -5.5625 11.1875 C-3.83534256 8.99617076 -3.83534256 8.99617076 -3 6 C-2.34 6 -1.68 6 -1 6 C-0.67 4.02 -0.34 2.04 0 0 Z " fill="#0F0C0C" transform="translate(58,129)"/>
<path d="M0 0 C2.97 0 5.94 0 9 0 C10.10228696 4.40914783 10.07654536 8.48382401 10 13 C7.36 12.67 4.72 12.34 2 12 C1.67 10.68 1.34 9.36 1 8 C1.99 7.67 2.98 7.34 4 7 C4 6.01 4 5.02 4 4 C2.68 3.67 1.36 3.34 0 3 C0 2.01 0 1.02 0 0 Z " fill="#B8B20B" transform="translate(178,219)"/>
<path d="M0 0 C0.99 0.99 1.98 1.98 3 3 C0.03 8.28 -2.94 13.56 -6 19 C-7.32 18.34 -8.64 17.68 -10 17 C-9.67 12.38 -9.34 7.76 -9 3 C-8.67 3 -8.34 3 -8 3 C-8 5.64 -8 8.28 -8 11 C-7.01 11 -6.02 11 -5 11 C-4.5978125 9.6696875 -4.5978125 9.6696875 -4.1875 8.3125 C-3.08289181 5.23122452 -1.77150856 2.73778595 0 0 Z " fill="#181516" transform="translate(222,69)"/>
<path d="M0 0 C6.6 0 13.2 0 20 0 C20.33 1.32 20.66 2.64 21 4 C19.78515625 5.703125 19.78515625 5.703125 18.0625 7.25 C17.49660156 7.77078125 16.93070312 8.2915625 16.34765625 8.828125 C15.90292969 9.21484375 15.45820313 9.6015625 15 10 C14.34 9.67 13.68 9.34 13 9 C13.875 5.125 13.875 5.125 15 4 C10.51866426 3.27743171 10.51866426 3.27743171 6 3 C4 3 2 3 0 3 C0 2.01 0 1.02 0 0 Z " fill="#0A0808" transform="translate(247,124)"/>
<path d="M0 0 C4.15151338 1.44202476 7.29978445 3.5010438 10.8125 6.125 C11.78832031 6.84945312 12.76414062 7.57390625 13.76953125 8.3203125 C14.87361328 9.15175781 14.87361328 9.15175781 16 10 C15.67 11.32 15.34 12.64 15 14 C9.16903048 10.89842047 4.13398101 7.14443819 -1 3 C-0.67 2.01 -0.34 1.02 0 0 Z " fill="#161414" transform="translate(65,97)"/>
<path d="M0 0 C0.66 0.33 1.32 0.66 2 1 C2 1.99 2 2.98 2 4 C-0.24179377 5.36965208 -2.49172338 6.72052808 -4.75 8.0625 C-5.38421875 8.45244141 -6.0184375 8.84238281 -6.671875 9.24414062 C-11.50498766 12.08862881 -11.50498766 12.08862881 -14.21582031 11.60327148 C-14.80459961 11.40419189 -15.39337891 11.2051123 -16 11 C-16 10.34 -16 9.68 -16 9 C-13.38029207 7.46935061 -10.75498357 5.95030252 -8.125 4.4375 C-7.37863281 3.99986328 -6.63226563 3.56222656 -5.86328125 3.11132812 C-5.14785156 2.70205078 -4.43242187 2.29277344 -3.6953125 1.87109375 C-3.03547363 1.48880615 -2.37563477 1.10651855 -1.69580078 0.71264648 C-1.13618652 0.47747314 -0.57657227 0.2422998 0 0 Z " fill="#121011" transform="translate(259,109)"/>
<path d="M0 0 C2.27408669 0.59180327 4.54420092 1.19888718 6.8125 1.8125 C8.07707031 2.14894531 9.34164062 2.48539062 10.64453125 2.83203125 C13.69436169 3.89361367 15.07192594 4.49852101 17 7 C15.375 8.125 15.375 8.125 13 9 C10.99161804 8.35902703 8.99172182 7.69100553 7 7 C4.22252318 7.28639786 4.22252318 7.28639786 2 8 C1.34 5.36 0.68 2.72 0 0 Z " fill="#181616" transform="translate(91,77)"/>
<path d="M0 0 C3.3 0 6.6 0 10 0 C10 2.31 10 4.62 10 7 C6.7 7 3.4 7 0 7 C0 4.69 0 2.38 0 0 Z " fill="#B1AB0D" transform="translate(154,218)"/>
<path d="M0 0 C0.33 0 0.66 0 1 0 C1.309375 1.8253125 1.309375 1.8253125 1.625 3.6875 C2.82130051 8.55876684 4.98322707 10.13087648 9 13 C10.01680311 13.98290968 11.02738219 14.97334787 12 16 C11.67 16.99 11.34 17.98 11 19 C9.68 19 8.36 19 7 19 C7 18.01 7 17.02 7 16 C4.36 15.01 1.72 14.02 -1 13 C-0.34 12.67 0.32 12.34 1 12 C0.649375 10.7625 0.29875 9.525 -0.0625 8.25 C-0.95593273 5.096708 -1.00881294 3.13225836 0 0 Z " fill="#E5DABA" transform="translate(182,193)"/>
<path d="M0 0 C2.375 0.125 2.375 0.125 5 1 C6.8125 3.5625 6.8125 3.5625 8 6 C7.01 6.495 7.01 6.495 6 7 C6.33 7.66 6.66 8.32 7 9 C5.35 9.33 3.7 9.66 2 10 C1.67 8.35 1.34 6.7 1 5 C1 9.62 1 14.24 1 19 C0.34 19 -0.32 19 -1 19 C-1.02683987 16.02077407 -1.04676037 13.04178705 -1.0625 10.0625 C-1.07087891 9.21236328 -1.07925781 8.36222656 -1.08789062 7.48632812 C-1.09111328 6.67744141 -1.09433594 5.86855469 -1.09765625 5.03515625 C-1.10289307 4.2862915 -1.10812988 3.53742676 -1.11352539 2.76586914 C-1 1 -1 1 0 0 Z " fill="#E84146" transform="translate(194,259)"/>
<path d="M0 0 C2.64 0 5.28 0 8 0 C7.69201674 1.48011371 7.378482 2.95907325 7.0625 4.4375 C6.88847656 5.26121094 6.71445313 6.08492187 6.53515625 6.93359375 C6 9 6 9 5 10 C3.00041636 10.04080783 0.99954746 10.04254356 -1 10 C-1.08004482 6.4780279 -1.04005702 3.38018531 0 0 Z " fill="#ADA70D" transform="translate(141,214)"/>
<path d="M0 0 C0.50333542 2.60356241 1.00279378 5.20776651 1.5 7.8125 C1.64308594 8.55048828 1.78617188 9.28847656 1.93359375 10.04882812 C2.50926281 13.07794391 3 15.909196 3 19 C2.01 19.33 1.02 19.66 0 20 C-1.48710793 18.51289207 -1.42238498 17.02604123 -1.75390625 14.96484375 C-1.88603516 14.15595703 -2.01816406 13.34707031 -2.15429688 12.51367188 C-2.28900391 11.66353516 -2.42371094 10.81339844 -2.5625 9.9375 C-2.70107422 9.08349609 -2.83964844 8.22949219 -2.98242188 7.34960938 C-3.32523005 5.23365549 -3.66307616 3.11689882 -4 1 C-1 0 -1 0 0 0 Z " fill="#0E0C0D" transform="translate(135,53)"/>
<path d="M0 0 C0 0.99 0 1.98 0 3 C-2.22771342 3.50643553 -4.45724076 4.0048962 -6.6875 4.5 C-8.54955078 4.91765625 -8.54955078 4.91765625 -10.44921875 5.34375 C-13.42398218 5.89354126 -15.99368602 6.13795705 -19 6 C-19 5.01 -19 4.02 -19 3 C-16.77228658 2.49356447 -14.54275924 1.9951038 -12.3125 1.5 C-10.45044922 1.08234375 -10.45044922 1.08234375 -8.55078125 0.65625 C-5.57601782 0.10645874 -3.00631398 -0.13795705 0 0 Z " fill="#0D0B0B" transform="translate(64,187)"/>
<path d="M0 0 C-0.33 1.98 -0.66 3.96 -1 6 C-3.64 6 -6.28 6 -9 6 C-9 7.32 -9 8.64 -9 10 C-9.99 9.67 -10.98 9.34 -12 9 C-11.40917986 7.51545194 -10.80187345 6.03745649 -10.1875 4.5625 C-9.85105469 3.73878906 -9.51460938 2.91507813 -9.16796875 2.06640625 C-6.91380057 -1.92173746 -3.88105645 -0.94404076 0 0 Z " fill="#736F16" transform="translate(136,208)"/>
<path d="M0 0 C2.475 0.99 2.475 0.99 5 2 C-0.0022779 12.55808656 -0.0022779 12.55808656 -4 17 C-4.66 16.67 -5.32 16.34 -6 16 C-4.88584587 12.93607614 -3.56228377 10.21373996 -1.875 7.4375 C0.31923475 4.06733858 0.31923475 4.06733858 0 0 Z " fill="#E51B20" transform="translate(113,255)"/>
<path d="M0 0 C0.66 0 1.32 0 2 0 C2.38434723 3.36303824 2.0939434 4.83740565 0.375 7.8125 C-2 10 -2 10 -5.125 10.4375 C-8 10 -8 10 -10 8 C-10.125 4.875 -10.125 4.875 -10 2 C-8.68 3.32 -7.36 4.64 -6 6 C-3.37812506 4.95125002 -2.20628639 4.35068687 -0.75 1.875 C-0.5025 1.25625 -0.255 0.6375 0 0 Z " fill="#1C1819" transform="translate(254,227)"/>
<path d="M0 0 C6.27 0 12.54 0 19 0 C19 0.99 19 1.98 19 3 C12.73 3 6.46 3 0 3 C0 2.01 0 1.02 0 0 Z " fill="#080707" transform="translate(256,168)"/>
<path d="M0 0 C2.31005869 2.31005869 2.72174103 3.83083657 3.625 6.9375 C3.88539063 7.81277344 4.14578125 8.68804687 4.4140625 9.58984375 C5 12 5 12 5 15 C4.01 15 3.02 15 2 15 C1.67 13.68 1.34 12.36 1 11 C-1.31 10.67 -3.62 10.34 -6 10 C-5.67 9.34 -5.34 8.68 -5 8 C-3.35 8 -1.7 8 0 8 C-0.185625 7.05125 -0.37125 6.1025 -0.5625 5.125 C-1 2 -1 2 0 0 Z " fill="#E50E13" transform="translate(156,268)"/>
<path d="M0 0 C-0.375 2.9375 -0.375 2.9375 -1 6 C-3.22890995 7.11445498 -4.53055106 7.16480286 -7 7.1875 C-8.051875 7.20876953 -8.051875 7.20876953 -9.125 7.23046875 C-11 7 -11 7 -13 5 C-13 4.01 -13 3.02 -13 2 C-12.01 2 -11.02 2 -10 2 C-9.67 2.66 -9.34 3.32 -9 4 C-7.02 4 -5.04 4 -3 4 C-3.66868314 0.88667752 -3.66868314 0.88667752 -6.0625 -0.1875 C-6.701875 -0.455625 -7.34125 -0.72375 -8 -1 C-4.59745511 -2.2151946 -3.06748874 -1.86240388 0 0 Z " fill="#E50D11" transform="translate(176,275)"/>
<path d="M0 0 C1.5 1.1875 1.5 1.1875 3 3 C2.979375 3.825 2.95875 4.65 2.9375 5.5 C2.9684375 6.7375 2.9684375 6.7375 3 8 C4.94009522 9.70532323 4.94009522 9.70532323 7 11 C7 11.66 7 12.32 7 13 C6.01 13.33 5.02 13.66 4 14 C1.01861079 11.40084018 -0.78723197 9.70922676 -1.9375 5.875 C-2 3 -2 3 0 0 Z " fill="#282627" transform="translate(236,99)"/>
<path d="M0 0 C2.97 0 5.94 0 9 0 C9 1.98 9 3.96 9 6 C6.03 6 3.06 6 0 6 C0 4.02 0 2.04 0 0 Z " fill="#C2BB0A" transform="translate(155,211)"/>
<path d="M0 0 C-0.33 2.97 -0.66 5.94 -1 9 C-6.75 8.25 -6.75 8.25 -9 6 C-4.5 0 -4.5 0 0 0 Z " fill="#E5161C" transform="translate(125,261)"/>
<path d="M0 0 C1 1 1 1 1.0625 3.5625 C1.041875 4.366875 1.02125 5.17125 1 6 C-0.32 6.33 -1.64 6.66 -3 7 C-2.67 5.35 -2.34 3.7 -2 2 C-4.31 2.66 -6.62 3.32 -9 4 C-8.67 5.32 -8.34 6.64 -8 8 C-8.66 7.67 -9.32 7.34 -10 7 C-10 6.01 -10 5.02 -10 4 C-10.66 3.67 -11.32 3.34 -12 3 C-4.62857143 -1.7697479 -4.62857143 -1.7697479 0 0 Z " fill="#E51115" transform="translate(216,252)"/>
<path d="M0 0 C0.75 1.75 0.75 1.75 1 4 C-0.67991613 6.55639411 -2.03748492 7.77816319 -5.05078125 8.47265625 C-7.02598499 8.72174944 -9.01356104 8.86757074 -11 9 C-11.99 7.68 -12.98 6.36 -14 5 C-10.3960396 3.84158416 -10.3960396 3.84158416 -8.125 4.75 C-5.98376108 5.23290814 -5.98376108 5.23290814 -4.4140625 3.95703125 C-2.89954141 2.68781991 -1.44567502 1.34710627 0 0 Z " fill="#0F0D0D" transform="translate(121,72)"/>
<path d="M0 0 C5.28 0 10.56 0 16 0 C12.625 5.625 12.625 5.625 9 7 C8.34 6.34 7.68 5.68 7 5 C6.34 5 5.68 5 5 5 C4.67 4.01 4.34 3.02 4 2 C2.68 1.34 1.36 0.68 0 0 Z " fill="#1D191A" transform="translate(248,125)"/>
<path d="M0 0 C3.23201584 0.37344721 5.55649103 1.81171917 8.25 3.5625 C8.95640625 4.01753906 9.6628125 4.47257812 10.390625 4.94140625 C11.18726562 5.46541016 11.18726562 5.46541016 12 6 C8.79937313 7.60031344 6.27728194 6.03173691 3 5 C2.34 6.32 1.68 7.64 1 9 C1 8.01 1 7.02 1 6 C0.34 6 -0.32 6 -1 6 C-1.625 4.125 -1.625 4.125 -2 2 C-1.34 1.34 -0.68 0.68 0 0 Z " fill="#161314" transform="translate(89,73)"/>
<path d="M0 0 C0.66 0.99 1.32 1.98 2 3 C1.67 3.99 1.34 4.98 1 6 C-4.48946087 7.12029814 -7.83430559 6.79217969 -13 5 C-13 4.34 -13 3.68 -13 3 C-8.71 3 -4.42 3 0 3 C0 2.01 0 1.02 0 0 Z " fill="#4F4A0F" transform="translate(194,213)"/>
<path d="M0 0 C0.33 0 0.66 0 1 0 C1 2.97 1 5.94 1 9 C3.1346875 8.5978125 3.1346875 8.5978125 5.3125 8.1875 C6.11300781 8.03667969 6.91351563 7.88585937 7.73828125 7.73046875 C10.23445587 6.92427764 11.32422106 5.97947998 13 4 C13.33 5.65 13.66 7.3 14 9 C9.25789168 11.90287939 5.34332952 10.70306967 0 10 C0 6.7 0 3.4 0 0 Z " fill="#070506" transform="translate(163,60)"/>
<path d="M0 0 C0.66 1.32 1.32 2.64 2 4 C-0.97 4 -3.94 4 -7 4 C-7.33 5.65 -7.66 7.3 -8 9 C-8.66 8.67 -9.32 8.34 -10 8 C-10.1875 5.125 -10.1875 5.125 -10 2 C-6.3558226 -0.4294516 -4.28758728 -0.16179575 0 0 Z " fill="#E62529" transform="translate(187,263)"/>
<path d="M0 0 C0.66 0.99 1.32 1.98 2 3 C-0.21601325 3.57452195 -2.35466805 4.05066686 -4.625 4.375 C-7.3540951 4.81236489 -7.3540951 4.81236489 -9 8 C-9.99 8.495 -9.99 8.495 -11 9 C-11.3125 6.75 -11.3125 6.75 -11 4 C-7.59945791 0.29941008 -4.98893217 -0.77605612 0 0 Z " fill="#070606" transform="translate(115,61)"/>
<path d="M0 0 C5.94 0.99 5.94 0.99 12 2 C11.67 3.32 11.34 4.64 11 6 C12.32 6 13.64 6 15 6 C15.33 5.34 15.66 4.68 16 4 C16 4.99 16 5.98 16 7 C13.69 7 11.38 7 9 7 C9.33 5.68 9.66 4.36 10 3 C9.05125 3.020625 8.1025 3.04125 7.125 3.0625 C4 3 4 3 2 2 C2 2.99 2 3.98 2 5 C2.99 5.33 3.98 5.66 5 6 C2.03 6 -0.94 6 -4 6 C-2.68 5.67 -1.36 5.34 0 5 C0 3.35 0 1.7 0 0 Z " fill="#2D2C19" transform="translate(178,206)"/>
<path d="M0 0 C2.97 0 5.94 0 9 0 C9 2.31 9 4.62 9 7 C7.02 7 5.04 7 3 7 C3 5.02 3 3.04 3 1 C2.01 0.67 1.02 0.34 0 0 Z " fill="#999432" transform="translate(155,203)"/>
<path d="M0 0 C-4.42236821 4.27495594 -9.19839226 5.51298598 -15 7 C-15.33 6.01 -15.66 5.02 -16 4 C-13.90049414 3.13444052 -11.7952093 2.28288723 -9.6875 1.4375 C-8.51574219 0.96183594 -7.34398437 0.48617187 -6.13671875 -0.00390625 C-3 -1 -3 -1 0 0 Z " fill="#151213" transform="translate(63,197)"/>
<path d="M0 0 C0.33 0.99 0.66 1.98 1 3 C3.97 2.34 6.94 1.68 10 1 C9.67 2.32 9.34 3.64 9 5 C3.555 6.485 3.555 6.485 -2 8 C-1.34 5.36 -0.68 2.72 0 0 Z " fill="#0C0A0B" transform="translate(58,129)"/>
<path d="M0 0 C2.0625 0.4375 2.0625 0.4375 4 1 C3.74438677 3.3431213 3.40729228 5.67843403 3 8 C2.01 8.495 2.01 8.495 1 9 C-1.125 8.0625 -1.125 8.0625 -3 7 C-1.125 1.125 -1.125 1.125 0 0 Z " fill="#E8E8E8" transform="translate(52,130)"/>
<path d="M0 0 C0.99 0.495 0.99 0.495 2 1 C2 2.32 2 3.64 2 5 C2.66 5 3.32 5 4 5 C5 6 6 7 7 8 C7.70125 8.350625 8.4025 8.70125 9.125 9.0625 C11 10 11 10 12 12 C8.16526716 12.35671933 6.44657125 12.29771416 3.1875 10.125 C0.42151101 7.43803926 0.01501201 6.75060045 -0.0625 2.875 C-0.041875 1.92625 -0.02125 0.9775 0 0 Z " fill="#0D0B0C" transform="translate(184,64)"/>
<path d="M0 0 C2.475 0.99 2.475 0.99 5 2 C3.52307692 6.67692308 3.52307692 6.67692308 0.875 8.3125 C-0.053125 8.6528125 -0.053125 8.6528125 -1 9 C-2.1875 7.3125 -2.1875 7.3125 -3 5 C-1.625 2.25 -1.625 2.25 0 0 Z " fill="#EAEAEA" transform="translate(249,225)"/>
<path d="M0 0 C1.98 0 3.96 0 6 0 C6 0.66 6 1.32 6 2 C6.99 2.33 7.98 2.66 9 3 C8.67 3.99 8.34 4.98 8 6 C5.03 6 2.06 6 -1 6 C-0.67 4.02 -0.34 2.04 0 0 Z " fill="#B5AE09" transform="translate(123,219)"/>
<path d="M0 0 C0 0.66 0 1.32 0 2 C0.66 2.33 1.32 2.66 2 3 C-2.95 3.33 -7.9 3.66 -13 4 C-13 3.01 -13 2.02 -13 1 C-8.59085217 -0.10228696 -4.51617599 -0.07654536 0 0 Z " fill="#0B090A" transform="translate(268,154)"/>
<path d="M0 0 C2.64 0 5.28 0 8 0 C8 1.65 8 3.3 8 5 C5.36 5 2.72 5 0 5 C0 3.35 0 1.7 0 0 Z " fill="#E7DC00" transform="translate(153,226)"/>
<path d="M0 0 C0.66 0.33 1.32 0.66 2 1 C1.67 5.29 1.34 9.58 1 14 C-3.29 14 -7.58 14 -12 14 C-12 13.67 -12 13.34 -12 13 C-8.7 13 -5.4 13 -2 13 C-2 11.35 -2 9.7 -2 8 C-1.34 8 -0.68 8 0 8 C0 5.36 0 2.72 0 0 Z " fill="#605D20" transform="translate(164,218)"/>
<path d="M0 0 C0.99 0 1.98 0 3 0 C3 3.63 3 7.26 3 11 C1.68 11.33 0.36 11.66 -1 12 C-0.67 8.04 -0.34 4.08 0 0 Z " fill="#201E1F" transform="translate(43,148)"/>
<path d="M0 0 C3.4375 0.25 3.4375 0.25 7 1 C7.66 1.99 8.32 2.98 9 4 C5.37 4.33 1.74 4.66 -2 5 C-1 1 -1 1 0 0 Z " fill="#E7E7E7" transform="translate(109,64)"/>
<path d="M0 0 C1.65 0.33 3.3 0.66 5 1 C4.2884375 1.804375 4.2884375 1.804375 3.5625 2.625 C1.71813924 5.42842836 1.37543153 7.69620258 1 11 C0.34 11 -0.32 11 -1 11 C-2.1875 8.3125 -2.1875 8.3125 -3 5 C-1.625 2.125 -1.625 2.125 0 0 Z " fill="#121010" transform="translate(187,58)"/>
<path d="M0 0 C2.70931419 0.15481795 4.46584039 0.48172081 6.4453125 2.40234375 C7.67679642 3.89771708 8.8429837 5.4462924 10 7 C7.03 6.67 4.06 6.34 1 6 C0 1.125 0 1.125 0 0 Z " fill="#E51115" transform="translate(199,265)"/>
<path d="M0 0 C1.32 0 2.64 0 4 0 C4 1.98 4 3.96 4 6 C1.69 6 -0.62 6 -3 6 C-3 4.68 -3 3.36 -3 2 C-2.01 2 -1.02 2 0 2 C0 1.34 0 0.68 0 0 Z " fill="#E7DB01" transform="translate(138,225)"/>
<path d="M0 0 C0.33 1.32 0.66 2.64 1 4 C-3.62 4.33 -8.24 4.66 -13 5 C-13 4.34 -13 3.68 -13 3 C-13.66 2.67 -14.32 2.34 -15 2 C-13.06257659 1.97296619 -11.12504521 1.95358875 -9.1875 1.9375 C-8.10855469 1.92589844 -7.02960938 1.91429687 -5.91796875 1.90234375 C-3 2 -3 2 0 3 C0 2.01 0 1.02 0 0 Z " fill="#050404" transform="translate(273,180)"/>
<path d="M0 0 C2.10827055 3.16240582 2.33817465 4.50657469 2.625 8.1875 C2.69976562 9.08855469 2.77453125 9.98960938 2.8515625 10.91796875 C2.90054688 11.60503906 2.94953125 12.29210937 3 13 C1.68 13 0.36 13 -1 13 C-1.02696365 11.20841511 -1.04637917 9.41671527 -1.0625 7.625 C-1.07410156 6.62726563 -1.08570313 5.62953125 -1.09765625 4.6015625 C-1 2 -1 2 0 0 Z " fill="#090707" transform="translate(143,58)"/>
<path d="M0 0 C0 0.66 0 1.32 0 2 C-5.61 1.34 -11.22 0.68 -17 0 C-17 -0.33 -17 -0.66 -17 -1 C-5.16939252 -3.30841121 -5.16939252 -3.30841121 0 0 Z " fill="#DEDDDE" transform="translate(182,205)"/>
<path d="M0 0 C0.66 0.33 1.32 0.66 2 1 C2 1.99 2 2.98 2 4 C-1.82517513 6.39073445 -5.59665524 6.55966552 -10 7 C-7.20283196 3.70921407 -3.80471422 1.93694542 0 0 Z " fill="#110E0F" transform="translate(259,109)"/>
<path d="M0 0 C1.4540625 0.0309375 1.4540625 0.0309375 2.9375 0.0625 C3.2675 1.3825 3.5975 2.7025 3.9375 4.0625 C1.9575 4.3925 -0.0225 4.7225 -2.0625 5.0625 C-2.7225 3.7425 -3.3825 2.4225 -4.0625 1.0625 C-3.0625 0.0625 -3.0625 0.0625 0 0 Z " fill="#FBEAEA" transform="translate(169.0625,274.9375)"/>
<path d="M0 0 C-0.25 2.375 -0.25 2.375 -1 5 C-3.0625 6.3125 -3.0625 6.3125 -5 7 C-5.66 5.35 -6.32 3.7 -7 2 C-4 0 -4 0 0 0 Z " fill="#FBEBEB" transform="translate(214,254)"/>
<path d="M0 0 C2.97 0.495 2.97 0.495 6 1 C6.33 1.99 6.66 2.98 7 4 C6.01 5.485 6.01 5.485 5 7 C2.5 5.75 2.5 5.75 0 4 C0 2.68 0 1.36 0 0 Z " fill="#262324" transform="translate(254,182)"/>
<path d="M0 0 C0.99 0 1.98 0 3 0 C3.05416188 1.60379341 3.09286638 3.20811406 3.125 4.8125 C3.14820313 5.70582031 3.17140625 6.59914063 3.1953125 7.51953125 C3 10 3 10 1 13 C0.1276588 10.00519083 -0.10829766 7.36424089 -0.0625 4.25 C-0.05347656 3.45078125 -0.04445312 2.6515625 -0.03515625 1.828125 C-0.02355469 1.22484375 -0.01195312 0.6215625 0 0 Z " fill="#080606" transform="translate(153,51)"/>
<path d="M0 0 C1.65 0 3.3 0 5 0 C5 1.65 5 3.3 5 5 C2.69 5 0.38 5 -2 5 C-1.34 3.35 -0.68 1.7 0 0 Z " fill="#E0D502" transform="translate(122,226)"/>
<path d="M0 0 C0 3 0 3 -2.1875 5.48046875 C-3.115625 6.37378906 -4.04375 7.26710938 -5 8.1875 C-5.928125 9.08855469 -6.85625 9.98960938 -7.8125 10.91796875 C-8.534375 11.60503906 -9.25625 12.29210937 -10 13 C-10.66 12.67 -11.32 12.34 -12 12 C-10.75479583 10.55834372 -9.50362077 9.12184348 -8.25 7.6875 C-7.55390625 6.88699219 -6.8578125 6.08648437 -6.140625 5.26171875 C-4.20854665 3.22034399 -2.30056874 1.60107149 0 0 Z " fill="#E5171C" transform="translate(114,90)"/>
<path d="M0 0 C0.33 0 0.66 0 1 0 C1.3125 2.8125 1.3125 2.8125 1 6 C-1.5 7.875 -1.5 7.875 -4 9 C-4.99 8.34 -5.98 7.68 -7 7 C-6.34 7 -5.68 7 -5 7 C-5 6.34 -5 5.68 -5 5 C-4.34 5 -3.68 5 -3 5 C-2.67 4.01 -2.34 3.02 -2 2 C-1.34 2 -0.68 2 0 2 C0 1.34 0 0.68 0 0 Z " fill="#1C1819" transform="translate(200,67)"/>
<path d="M0 0 C1.32 0 2.64 0 4 0 C4 0.66 4 1.32 4 2 C4.99 2.33 5.98 2.66 7 3 C6.67 3.99 6.34 4.98 6 6 C4.02 6 2.04 6 0 6 C0 4.02 0 2.04 0 0 Z " fill="#D3CC08" transform="translate(140,218)"/>
<path d="M0 0 C3.96 0 7.92 0 12 0 C12 0.66 12 1.32 12 2 C11.34 2 10.68 2 10 2 C10 2.99 10 3.98 10 5 C9.01 5 8.02 5 7 5 C7 4.34 7 3.68 7 3 C6.34 3 5.68 3 5 3 C5 2.34 5 1.68 5 1 C3.35 1 1.7 1 0 1 C0 0.67 0 0.34 0 0 Z " fill="#191516" transform="translate(263,178)"/>
<path d="M0 0 C0.99 0 1.98 0 3 0 C3 2.31 3 4.62 3 7 C-1.455 7.495 -1.455 7.495 -6 8 C-6 7.67 -6 7.34 -6 7 C-4.35 7 -2.7 7 -1 7 C-0.67 4.69 -0.34 2.38 0 0 Z " fill="#141011" transform="translate(172,168)"/>
<path d="M0 0 C0.99 0 1.98 0 3 0 C2.67 4.95 2.34 9.9 2 15 C-0.78781976 10.81827036 -1.20628545 7.59134491 -0.5625 2.625 C-0.376875 1.75875 -0.19125 0.8925 0 0 Z " fill="#1C1A1B" transform="translate(60,149)"/>
<path d="M0 0 C2.97 0 5.94 0 9 0 C8.67 0.99 8.34 1.98 8 3 C5.03 3 2.06 3 -1 3 C-0.67 2.01 -0.34 1.02 0 0 Z " fill="#0A0809" transform="translate(235,227)"/>
<path d="M0 0 C0.99 0.33 1.98 0.66 3 1 C2.67 3.31 2.34 5.62 2 8 C1.34 8 0.68 8 0 8 C0 7.34 0 6.68 0 6 C-0.66 6 -1.32 6 -2 6 C-1.125 1.125 -1.125 1.125 0 0 Z " fill="#CCC40B" transform="translate(148,204)"/>
<path d="M0 0 C2.69082872 0.17635452 5.32851446 0.61835921 8 1 C8 1.99 8 2.98 8 4 C2.46153846 4.36923077 2.46153846 4.36923077 0.125 2.5 C-0.24625 2.005 -0.6175 1.51 -1 1 C-0.67 0.67 -0.34 0.34 0 0 Z " fill="#F9E0E0" transform="translate(180,266)"/>
<path d="M0 0 C2.97 0.495 2.97 0.495 6 1 C6 2.32 6 3.64 6 5 C4.02 5 2.04 5 0 5 C0 3.35 0 1.7 0 0 Z " fill="#E5DB01" transform="translate(128,226)"/>
<path d="M0 0 C3.465 1.485 3.465 1.485 7 3 C7 4.98 7 6.96 7 9 C6.01 9 5.02 9 4 9 C4 7.35 4 5.7 4 4 C2.68 3.67 1.36 3.34 0 3 C0 2.01 0 1.02 0 0 Z " fill="#151212" transform="translate(268,153)"/>
<path d="M0 0 C5.875 4.625 5.875 4.625 7 8 C4.625 8.125 4.625 8.125 2 8 C0 6 0 6 -0.125 2.875 C-0.08375 1.92625 -0.0425 0.9775 0 0 Z " fill="#080606" transform="translate(244,229)"/>
<path d="M0 0 C0.33 1.32 0.66 2.64 1 4 C-0.65 5.32 -2.3 6.64 -4 8 C-4.66 6.68 -5.32 5.36 -6 4 C-4.02 2.68 -2.04 1.36 0 0 Z " fill="#181516" transform="translate(69,228)"/>
<path d="M0 0 C1.98 0 3.96 0 6 0 C5.67 1.98 5.34 3.96 5 6 C4.01 6 3.02 6 2 6 C2 5.01 2 4.02 2 3 C1.34 3 0.68 3 0 3 C0 2.01 0 1.02 0 0 Z " fill="#CBC409" transform="translate(128,215)"/>
<path d="M0 0 C1.32 0 2.64 0 4 0 C3.67 1.98 3.34 3.96 3 6 C1.35 6 -0.3 6 -2 6 C-1.49396008 3.83125748 -1.00016187 2.00032373 0 0 Z " fill="#1E1B1B" transform="translate(62,195)"/>
<path d="M0 0 C-0.1875 1.875 -0.1875 1.875 -1 4 C-3.5625 5.25 -3.5625 5.25 -6 6 C-6.33 4.68 -6.66 3.36 -7 2 C-4 0 -4 0 0 0 Z " fill="#191717" transform="translate(64,107)"/>
<path d="M0 0 C1.48117801 0.28127421 2.95993249 0.57533732 4.4375 0.875 C5.67306641 1.11863281 5.67306641 1.11863281 6.93359375 1.3671875 C7.61550781 1.57601562 8.29742187 1.78484375 9 2 C9.33 2.66 9.66 3.32 10 4 C2.25 5.125 2.25 5.125 0 4 C0 2.68 0 1.36 0 0 Z " fill="#232121" transform="translate(105,68)"/>
<path d="M0 0 C3.375 0.25 3.375 0.25 7 1 C8.4375 3.0625 8.4375 3.0625 9 5 C5.85262818 4.30058404 2.97411124 3.23921302 0 2 C0 1.34 0 0.68 0 0 Z " fill="#E62025" transform="translate(166,265)"/>
<path d="M0 0 C0.66 0.99 1.32 1.98 2 3 C-1.3 3.33 -4.6 3.66 -8 4 C-8 3.01 -8 2.02 -8 1 C-5.01726077 0.00575359 -3.10494126 -0.31845551 0 0 Z " fill="#060505" transform="translate(53,189)"/>
<path d="M0 0 C4.875 0.875 4.875 0.875 6 2 C5.71269945 4.33944736 5.38063221 6.6739143 5 9 C3 5.25 3 5.25 3 3 C2.01 2.67 1.02 2.34 0 2 C0 1.34 0 0.68 0 0 Z " fill="#0B0808" transform="translate(52,126)"/>
<path d="M0 0 C4.75 0.75 4.75 0.75 7 3 C7.125 6.125 7.125 6.125 7 9 C6.34 9 5.68 9 5 9 C5 7.68 5 6.36 5 5 C4.34 5 3.68 5 3 5 C2.67 4.01 2.34 3.02 2 2 C1.34 1.34 0.68 0.68 0 0 Z " fill="#1B1819" transform="translate(68,110)"/>
<path d="M0 0 C1.5625 1.125 1.5625 1.125 3 3 C2.6875 6.1875 2.6875 6.1875 2 9 C1.34 9 0.68 9 0 9 C-1.125 3.375 -1.125 3.375 0 0 Z " fill="#131111" transform="translate(251,97)"/>
<path d="M0 0 C3.465 1.98 3.465 1.98 7 4 C5.625 6 5.625 6 4 8 C3.34 8 2.68 8 2 8 C1.34 5.36 0.68 2.72 0 0 Z " fill="#DEDDDD" transform="translate(91,77)"/>
<path d="M0 0 C-0.33 1.65 -0.66 3.3 -1 5 C-1.99 4.67 -2.98 4.34 -4 4 C-4 3.34 -4 2.68 -4 2 C-6.64 2 -9.28 2 -12 2 C-12 1.67 -12 1.34 -12 1 C-10.37512529 0.83211627 -8.75009558 0.66573213 -7.125 0.5 C-6.22007812 0.4071875 -5.31515625 0.314375 -4.3828125 0.21875 C-2 0 -2 0 0 0 Z " fill="#343233" transform="translate(248,225)"/>
<path d="M0 0 C0.99 0.33 1.98 0.66 3 1 C2.67 2.65 2.34 4.3 2 6 C0.68 5.67 -0.64 5.34 -2 5 C-1.125 1.125 -1.125 1.125 0 0 Z " fill="#E4E4E4" transform="translate(156,173)"/>
<path d="M0 0 C-2.52956528 3.0916909 -5.22454612 3.90931332 -9 5 C-9 3.68 -9 2.36 -9 1 C-5.92677456 0.08941469 -3.19902639 -0.08886184 0 0 Z " fill="#E51115" transform="translate(140,81)"/>
<path d="M0 0 C1.98 0 3.96 0 6 0 C6 1.32 6 2.64 6 4 C4.35 4 2.7 4 1 4 C0.67 2.68 0.34 1.36 0 0 Z " fill="#ECE203" transform="translate(179,227)"/>
<path d="M0 0 C0.99 0.495 0.99 0.495 2 1 C3.35024359 5.1734802 2.7518819 8.73933592 2 13 C-0.20914 9.68629 -0.22481553 8.6553979 -0.125 4.8125 C-0.10695313 3.91144531 -0.08890625 3.01039063 -0.0703125 2.08203125 C-0.04710938 1.39496094 -0.02390625 0.70789063 0 0 Z " fill="#E73237" transform="translate(69,155)"/>
<path d="M0 0 C2.31 0 4.62 0 7 0 C5.71937515 1.7074998 4.38232443 3.37373596 3 5 C2.34 5 1.68 5 1 5 C0.67 3.35 0.34 1.7 0 0 Z " fill="#ECECEC" transform="translate(256,127)"/>
<path d="M0 0 C0.66 0 1.32 0 2 0 C1.50168276 3.68754757 0.89932357 5.60490662 -2 8 C-3 5 -3 5 -1.6875 2.3125 C-1.130625 1.549375 -0.57375 0.78625 0 0 Z " fill="#E5161A" transform="translate(99,257)"/>
<path d="M0 0 C2.31 0 4.62 0 7 0 C7 0.99 7 1.98 7 3 C4.36 3 1.72 3 -1 3 C-0.67 2.01 -0.34 1.02 0 0 Z " fill="#D3C908" transform="translate(128,211)"/>
<path d="M0 0 C0.66 0 1.32 0 2 0 C2.33 1.98 2.66 3.96 3 6 C1.35 6 -0.3 6 -2 6 C-1.34 4.02 -0.68 2.04 0 0 Z " fill="#F7D4D5" transform="translate(153,270)"/>
<path d="M0 0 C1.32 0.33 2.64 0.66 4 1 C2.68 2.65 1.36 4.3 0 6 C-0.99 5.67 -1.98 5.34 -3 5 C-2.01 3.35 -1.02 1.7 0 0 Z " fill="#E62127" transform="translate(115,268)"/>
<path d="M0 0 C0.33 0 0.66 0 1 0 C1 2.31 1 4.62 1 7 C-0.65 6.67 -2.3 6.34 -4 6 C-2.69593116 3.98079663 -1.36176581 1.98075027 0 0 Z " fill="#F7D3D3" transform="translate(123,263)"/>
<path d="M0 0 C2.31 0 4.62 0 7 0 C7 0.99 7 1.98 7 3 C4.69 3 2.38 3 0 3 C0 2.01 0 1.02 0 0 Z " fill="#F2E803" transform="translate(157,222)"/>
<path d="M0 0 C2.31 0 4.62 0 7 0 C7 0.99 7 1.98 7 3 C4.69 3 2.38 3 0 3 C0 2.01 0 1.02 0 0 Z " fill="#F1E703" transform="translate(178,219)"/>
<path d="M0 0 C-1.75 1.5625 -1.75 1.5625 -4 3 C-6.25 2.6875 -6.25 2.6875 -8 2 C-7.01 2 -6.02 2 -5 2 C-5 1.34 -5 0.68 -5 0 C-6.32 -0.33 -7.64 -0.66 -9 -1 C-5.22102349 -2.0497157 -3.35080929 -2.10976881 0 0 Z " fill="#0F0C0C" transform="translate(141,208)"/>
<path d="M0 0 C0.99 0 1.98 0 3 0 C2.67 3.3 2.34 6.6 2 10 C-0.4294516 6.3558226 -0.16179575 4.28758728 0 0 Z " fill="#050405" transform="translate(51,150)"/>
<path d="M0 0 C3.81538462 2.46153846 3.81538462 2.46153846 4.75 5.1875 C4.8325 5.785625 4.915 6.38375 5 7 C4.01 7.66 3.02 8.32 2 9 C0.50178941 5.62902617 0 3.79557881 0 0 Z " fill="#090606" transform="translate(91,86)"/>
<path d="M0 0 C-0.33 2.97 -0.66 5.94 -1 9 C-1.99 8.34 -2.98 7.68 -4 7 C-3.625 4.0625 -3.625 4.0625 -3 1 C-1 0 -1 0 0 0 Z " fill="#080606" transform="translate(203,62)"/>
<path d="M0 0 C3.3 0.33 6.6 0.66 10 1 C6.3558226 3.4294516 4.28758728 3.16179575 0 3 C0 2.01 0 1.02 0 0 Z " fill="#E50810" transform="translate(179,269)"/>
<path d="M0 0 C1.65 0 3.3 0 5 0 C5 1.32 5 2.64 5 4 C3.35 4 1.7 4 0 4 C0 2.68 0 1.36 0 0 Z " fill="#FFF400" transform="translate(158,205)"/>
<path d="M0 0 C-1.29299694 2.88437779 -2.65941363 4.87219421 -5 7 C-5.6875 5.1875 -5.6875 5.1875 -6 3 C-4.04862098 0.26806937 -3.44686768 0 0 0 Z " fill="#0F0C0C" transform="translate(64,200)"/>
<path d="M0 0 C2.97 0.495 2.97 0.495 6 1 C3.61426621 2.89213369 1.92824652 4.02391783 -1 5 C-0.67 3.35 -0.34 1.7 0 0 Z " fill="#0C0A0A" transform="translate(45,181)"/>
<path d="M0 0 C4.455 0.99 4.455 0.99 9 2 C9 2.66 9 3.32 9 4 C6.03 3.67 3.06 3.34 0 3 C0 2.01 0 1.02 0 0 Z " fill="#171414" transform="translate(45,169)"/>
<path d="M0 0 C2 3 2 3 2 5 C2.99 5.33 3.98 5.66 5 6 C2.69 6.66 0.38 7.32 -2 8 C-1.34 5.36 -0.68 2.72 0 0 Z " fill="#272525" transform="translate(58,129)"/>
<path d="M0 0 C0.66 0.33 1.32 0.66 2 1 C-0.31 3.64 -2.62 6.28 -5 9 C-5.66 8.67 -6.32 8.34 -7 8 C-6.21366078 6.85050412 -5.42073742 5.70551011 -4.625 4.5625 C-4.18414062 3.92441406 -3.74328125 3.28632813 -3.2890625 2.62890625 C-2 1 -2 1 0 0 Z " fill="#222121" transform="translate(131,131)"/>
<path d="M0 0 C0.66 0.66 1.32 1.32 2 2 C1.34 4.31 0.68 6.62 0 9 C-0.66 8.34 -1.32 7.68 -2 7 C-1.43181818 1.43181818 -1.43181818 1.43181818 0 0 Z " fill="#0D0B0B" transform="translate(236,99)"/>
<path d="M0 0 C3.3 0.33 6.6 0.66 10 1 C9.34 1.66 8.68 2.32 8 3 C8.33 3.66 8.66 4.32 9 5 C5.35008834 3.68197635 3.2104799 2.40785992 0 0 Z " fill="#E50C0F" transform="translate(172,81)"/>
<path d="M0 0 C2.875 -0.1875 2.875 -0.1875 6 0 C6.66 0.99 7.32 1.98 8 3 C6.68 3.33 5.36 3.66 4 4 C4 3.34 4 2.68 4 2 C2.68 2 1.36 2 0 2 C0 1.34 0 0.68 0 0 Z " fill="#110E0E" transform="translate(109,61)"/>
<path d="M0 0 C1.88343932 3.76687864 2.22057835 5.02958963 2 9 C1.01 9 0.02 9 -1 9 C-0.67 6.03 -0.34 3.06 0 0 Z " fill="#E50D10" transform="translate(131,270)"/>
<path d="M0 0 C0.66 0 1.32 0 2 0 C2 0.66 2 1.32 2 2 C2.99 2 3.98 2 5 2 C5 2.66 5 3.32 5 4 C3.35 4.33 1.7 4.66 0 5 C-0.66 4.01 -1.32 3.02 -2 2 C-1.34 2 -0.68 2 0 2 C0 1.34 0 0.68 0 0 Z " fill="#4D4C4C" transform="translate(232,240)"/>
<path d="M0 0 C1.98 0 3.96 0 6 0 C5.67 1.32 5.34 2.64 5 4 C3.35 3.67 1.7 3.34 0 3 C0 2.01 0 1.02 0 0 Z " fill="#F7EC01" transform="translate(172,207)"/>
<path d="M0 0 C1.98 0 3.96 0 6 0 C6 1.32 6 2.64 6 4 C4.02 3.34 2.04 2.68 0 2 C0 1.34 0 0.68 0 0 Z " fill="#110E0F" transform="translate(262,204)"/>
<path d="M0 0 C2 2 2 2 2 5 C1.34 5 0.68 5 0 5 C0 5.66 0 6.32 0 7 C0.66 7.33 1.32 7.66 2 8 C-0.97 7.505 -0.97 7.505 -4 7 C-3.525625 6.401875 -3.05125 5.80375 -2.5625 5.1875 C-0.83534256 2.99617076 -0.83534256 2.99617076 0 0 Z " fill="#080606" transform="translate(55,135)"/>
<path d="M0 0 C2.475 0.495 2.475 0.495 5 1 C5 1.99 5 2.98 5 4 C3.35 4 1.7 4 0 4 C0 2.68 0 1.36 0 0 Z " fill="#E9E9E9" transform="translate(145,130)"/>
<path d="M0 0 C1 2 1 2 0.375 3.9375 C-1.35198322 6.52797483 -3.2734275 7.56496184 -6 9 C-4.47291037 5.56404834 -2.40072955 2.88087546 0 0 Z " fill="#E50D11" transform="translate(96,99)"/>
<path d="M0 0 C0.99 0.33 1.98 0.66 3 1 C3.33 3.31 3.66 5.62 4 8 C3.01 8 2.02 8 1 8 C-0.35439668 5.29120665 -0.06501451 2.99066732 0 0 Z " fill="#070506" transform="translate(242,96)"/>
<path d="M0 0 C1.32 0.66 2.64 1.32 4 2 C3.2884375 2.6496875 3.2884375 2.6496875 2.5625 3.3125 C0.76313043 5.02309613 0.76313043 5.02309613 0 8 C-1 7 -1 7 -1.125 4 C-1 1 -1 1 0 0 Z " fill="#E50B12" transform="translate(164,266)"/>
<path d="M0 0 C1.65 1.65 3.3 3.3 5 5 C3.35 5.33 1.7 5.66 0 6 C0 4.02 0 2.04 0 0 Z " fill="#FAE4E5" transform="translate(196,263)"/>
<path d="M0 0 C0.66 0.33 1.32 0.66 2 1 C2 1.99 2 2.98 2 4 C0.68 4.33 -0.64 4.66 -2 5 C-2 3.68 -2 2.36 -2 1 C-1.34 0.67 -0.68 0.34 0 0 Z " fill="#0E0B0C" transform="translate(60,220)"/>
<path d="M0 0 C2.64 0.33 5.28 0.66 8 1 C8 1.66 8 2.32 8 3 C5.36 3 2.72 3 0 3 C0 2.01 0 1.02 0 0 Z " fill="#FCF300" transform="translate(180,208)"/>
<path d="M0 0 C-2.3125 2.0625 -2.3125 2.0625 -5 4 C-5.99 3.67 -6.98 3.34 -8 3 C-8 2.34 -8 1.68 -8 1 C-3.375 -1.125 -3.375 -1.125 0 0 Z " fill="#070505" transform="translate(63,197)"/>
<path d="M0 0 C2.01822917 0.06510417 4.03645833 0.13020833 6.0546875 0.1953125 C4.4296875 1.7578125 4.4296875 1.7578125 2.0546875 3.1953125 C-1.1953125 2.8828125 -1.1953125 2.8828125 -3.9453125 2.1953125 C-1.9453125 0.1953125 -1.9453125 0.1953125 0 0 Z " fill="#1D1A1B" transform="translate(249.9453125,114.8046875)"/>
<path d="M0 0 C0.66 0 1.32 0 2 0 C1.67 2.31 1.34 4.62 1 7 C0.34 6.67 -0.32 6.34 -1 6 C-1.042721 4.33388095 -1.04063832 2.66617115 -1 1 C-0.67 0.67 -0.34 0.34 0 0 Z " fill="#E5070B" transform="translate(133,263)"/>
<path d="M0 0 C0.66 0 1.32 0 2 0 C2.66 2.31 3.32 4.62 4 7 C3.01 7.33 2.02 7.66 1 8 C-0.35439668 5.29120665 -0.06501451 2.99066732 0 0 Z " fill="#181415" transform="translate(247,205)"/>
<path d="M0 0 C0 2.31 0 4.62 0 7 C-0.66 7 -1.32 7 -2 7 C-2.66 5.02 -3.32 3.04 -4 1 C-2 0 -2 0 0 0 Z " fill="#272425" transform="translate(188,62)"/>
</svg>
